<ttFont>
          <CharString index="0">
            -107 callgsubr
            endchar
          </CharString>
          <CharString index="1">
            rmoveto
            -79 callsubr
            67 50 23 27 41 vhcurveto
            -36 callgsubr
            -89 -74 61 118 -7 hvcurveto
            335 hlineto
            2 12 2 16 16 vvcurveto
            -337 9 rmoveto
            109 13 68 50 65 hhcurveto
            79 47 -55 -104 hvcurveto
            -272 hlineto
            return
          </CharString>
          <CharString index="2">
            78 hlineto
            -95 callsubr
            -292 -96 callsubr
            endchar
          </CharString>
          <CharString index="3">
            -106 callsubr
            endchar
          </CharString>
          <CharString index="4">
            118 105 93 161 161 -105 94 -118 -118 -105 10 callsubr
            105 -93 118 hvcurveto
            1 61 rmoveto
            -87 -61 -8 callsubr
            61 79 87 87 60 -79 -115 -116 -60 -77 -87 hvcurveto
            return
          </CharString>
          <CharString index="5">
            -15 443 120 rmoveto
            -48 -35 -37 -25 -50 hhcurveto
            -85 -56 72 118 -17 hvcurveto
            220 45 -225 hlineto
            -1 13 0 13 13 vvcurveto
            10 0 10 1 10 vhcurveto
            265 45 -261 hlineto
            122 16 59 73 92 hhcurveto
            43 34 -24 -36 28 hvcurveto
            43 41 rlineto
            44 -33 -54 34 -60 hhcurveto
            -130 -91 -95 -159 -22 hvcurveto
            -64 -4 rlineto
            -41 60 vlineto
            -1 -10 0 -11 -11 vvcurveto
            -13 0 -12 1 -12 vhcurveto
            -60 -4 rlineto
            -41 65 vlineto
            -157 22 87 -92 119 hhcurveto
            74 53 35 58 44 hvcurveto
            -44 39 rlineto
            endchar
          </CharString>
          <CharString index="6">
            rmoveto
            -102 callgsubr
            return
          </CharString>
          <CharString index="7">
            rmoveto
            -101 callgsubr
          </CharString>
          <CharString index="8">
            rmoveto
            -3 callgsubr
          </CharString>
          <CharString index="9">
            -15 235 -12 rmoveto
            115 92 69 113 88 -63 57 -78 18 hvcurveto
            4 vlineto
            70 25 48 50 78 vvcurveto
            102 -79 58 -108 -75 -58 -34 -45 -48 vhcurveto
            40 -47 rlineto
            39 37 47 27 55 hhcurveto
            70 45 -41 -64 -69 -48 -55 -138 hvcurveto
            -57 vlineto
            153 56 -53 -79 -75 -57 -48 -80 -78 -50 37 40 -39 hvcurveto
            -37 -48 rlineto
            -46 42 64 -44 102 hhcurveto
            endchar
          </CharString>
          <CharString index="10">
            718 rmoveto
            27 19 18 28 27 -19 18 -27 -26 -19 -18 -27 -28 19 -18 26 hvcurveto
            204 hmoveto
            26 20 18 28 27 -20 18 -26 -27 -19 -18 -27 -28 19 -18 27 hvcurveto
            return
          </CharString>
          <CharString index="11">
            266 rmoveto
            34 106 25 75 21 71 21 77 26 callsubr
            22 -77 22 -71 24 -75 34 -106 rcurveline
            -207 hlineto
            return
          </CharString>
          <CharString index="12">
            -224 657 rlineto
            -82 hlineto
            -225 -657 rlineto
            75 hlineto
            67 207 rlineto
            245 hlineto
            66 -207 rlineto
            return
          </CharString>
          <CharString index="13">
            -15 249 -12 rmoveto
            121 81 75 95 85 -54 44 -57 34 hvcurveto
            4 vlineto
            39 30 50 58 68 vvcurveto
            98 -67 71 -111 -101 -76 -65 -97 -67 42 -47 47 -33 vhcurveto
            -4 vlineto
            -60 -32 -62 -58 -84 vvcurveto
            -101 88 -74 120 vhcurveto
            45 356 rmoveto
            -78 31 -75 34 79 vvcurveto
            64 46 43 62 74 42 -52 -65 -49 -25 -45 -46 -40 vhcurveto
            -45 -301 rmoveto
            -81 -61 54 72 62 41 49 54 34 hvcurveto
            94 -37 85 -31 -87 vvcurveto
            -67 -53 -49 -79 vhcurveto
            endchar
          </CharString>
          <CharString index="14">
            -17 -13 -16 -87 callgsubr
            return
          </CharString>
          <CharString index="15">
            -210 -100 callgsubr
            return
          </CharString>
          <CharString index="16">
            30 25 24 34 35 -43 callgsubr
            -35 -34 25 -24 30 hvcurveto
            return
          </CharString>
          <CharString index="17">
            -15 270 389 rmoveto
            -53 -58 -33 -51 -41 hvcurveto
            212 3 79 72 92 hhcurveto
            40 40 -19 -32 26 hvcurveto
            41 46 rlineto
            38 -35 -48 28 -66 hhcurveto
            -126 -115 -97 -260 -202 91 -103 126 101 84 83 120 131 -70 67 -111 hvcurveto
            -4 -343 rmoveto
            -87 -50 73 126 -9 hvcurveto
            63 45 52 25 42 hhcurveto
            83 40 -56 -86 -85 -50 -60 -66 hvcurveto
            endchar
          </CharString>
          <CharString index="18">
            -15 225 650 rmoveto
            -100 -85 -83 -120 -131 70 -67 111 54 56 32 51 42 hvcurveto
            -211 -3 -78 -72 -93 hhcurveto
            -40 -40 19 32 -26 hvcurveto
            -41 -46 rlineto
            -38 35 48 -28 66 hhcurveto
            36 callgsubr
            97 260 202 -91 103 -126 hvcurveto
            7 -345 rmoveto
            -83 -40 56 86 86 50 59 66 86 50 -72 -126 10 hvcurveto
            -64 -45 -52 -25 -42 hhcurveto
            endchar
          </CharString>
          <CharString index="19">
            25 callsubr
            -84 callgsubr
            15 -18 hvcurveto
            return
          </CharString>
          <CharString index="20">
            578 rmoveto
            68 27 59 73 3 hvcurveto
            -50 4 rlineto
            -48 -3 -14 -35 -30 -50 -25 87 -71 hhcurveto
            -69 -26 -59 -74 -4 hvcurveto
            50 -3 rlineto
            49 3 14 33 32 48 25 -86 72 hhcurveto
            return
          </CharString>
          <CharString index="21">
            29 21 20 31 29 -21 20 -29 return
          </CharString>
          <CharString index="22">
            53 524 hmoveto
            -141 208 113 347 rlineto
            -75 hlineto
            -59 -196 -24 -83 -94 139 -88 140 rlineto
            -79 hlineto
            91 -145 -27 -66 -109 -344 rlineto
            74 hlineto
            107 341 228 -341 rlineto
            83 hlineto
            return
          </CharString>
          <CharString index="23">
            45 249 -12 rmoveto
            59 52 32 39 39 hvcurveto
            2 hlineto
            7 -59 rlineto
            60 714 -73 -190 hlineto
            3 -84 rlineto
            35 -44 -37 22 -57 hhcurveto
            -112 -99 -71 callsubr
            return
          </CharString>
          <CharString index="24">
            384 -82 callsubr
            hlineto
            return
          </CharString>
          <CharString index="25">
            63 -310 252 253 62 -253 217 300 63 -374 -657 return
          </CharString>
          <CharString index="26">
            574 rmoveto
            73 hlineto
            114 140 -32 30 -117 -117 24 callgsubr
            -116 117 -32 -30 114 -140 rlineto
            return
          </CharString>
          <CharString index="27">
            rmoveto
            94 50 74 93 33 hvcurveto
            184 530 rlineto
            -71 hlineto
            -91 -278 -13 -42 -14 -50 -15 -44 26 callgsubr
            -16 44 -17 50 -15 42 -104 278 rcurveline
            -75 hlineto
            196 -488 -12 -37 rlineto
            -64 -21 -36 -47 -56 hhcurveto
            -13 -15 4 4 -10 hvcurveto
            -14 -59 rlineto
            -6 15 18 -4 22 hhcurveto
            endchar
          </CharString>
          <CharString index="28">
            140 -70 87 -122 -111 -105 -98 -157 -159 102 -95 128 return
          </CharString>
          <CharString index="29">
            -83 callsubr
            endchar
          </CharString>
          <CharString index="30">
            209 -115 129 -163 -40 callgsubr
            return
          </CharString>
          <CharString index="31">
            73 355 hlineto
            -33 callgsubr
            -299 72 44 callgsubr
            124 -46 65 -101 -67 return
          </CharString>
          <CharString index="32">
            -48 callgsubr
            -51 hlineto
            -364 -681 rlineto
            endchar
          </CharString>
          <CharString index="33">
            329 -99 callgsubr
          </CharString>
          <CharString index="34">
            -15 246 -12 rmoveto
            126 75 120 213 214 -75 115 -126 -126 -75 -115 -214 -213 75 -120 126 hvcurveto
            59 vmoveto
            -78 -52 85 189 189 52 81 78 78 52 -81 -189 -189 -52 -85 -78 hvcurveto
            endchar
          </CharString>
          <CharString index="35">
            32 27 -119 158 119 157 -32 28 -137 -157 rlineto
            -56 vlineto
            137 -157 rlineto
            return
          </CharString>
          <CharString index="36">
            9 callsubr
            hvcurveto
            15 62 -68 callsubr
            return
          </CharString>
          <CharString index="37">
            -15 463 238 rmoveto
            -89 400 -78 hlineto
            -279 -411 rlineto
            -47 288 -180 69 180 89 58 vlineto
            -368 hmoveto
            159 230 18 31 18 27 16 30 26 callsubr
            -2 -33 -3 -54 -33 vvcurveto
            -198 -210 vlineto
            endchar
          </CharString>
          <CharString index="38">
            -176 232 -12 -82 callgsubr
            return
          </CharString>
          <CharString index="39">
            rmoveto
            -90 -50 73 119 113 65 80 82 42 38 -14 -39 44 hvcurveto
            -263 vlineto
            -46 -43 -41 -23 -47 hhcurveto
            return
          </CharString>
          <CharString index="40">
            -89 209 321 rmoveto
            102 84 79 116 117 -84 80 -102 -103 -84 -80 -117 -116 84 -79 103 hvcurveto
            34 vmoveto
            -84 -65 66 95 95 65 68 84 84 65 -68 -95 -95 -65 -66 -84 hvcurveto
            -72 62 rmoveto
            39 72 42 hlineto
            36 -72 rlineto
            44 hlineto
            -47 84 rlineto
            23 8 15 23 25 vvcurveto
            48 -37 16 -41 vhcurveto
            -74 -204 hlineto
            39 103 rmoveto
            69 29 vlineto
            32 11 -14 -21 -23 -18 -11 -28 hvcurveto
            -26 hlineto
            endchar
          </CharString>
          <CharString index="41">
            106 92 hmoveto
            164 hlineto
            -14 callsubr
            -161 32 callsubr
            74 61 rmoveto
            535 81 vlineto
            -2 callgsubr
            -81 hlineto
            return
          </CharString>
          <CharString index="42">
            -15 91 hmoveto
            49 hlineto
            24 207 rlineto
            137 hlineto
            -25 -207 rlineto
            49 hlineto
            25 207 rlineto
            92 52 -85 hlineto
            19 153 rlineto
            86 52 -81 hlineto
            24 186 rlineto
            -49 hlineto
            -24 -186 rlineto
            -137 hlineto
            24 186 rlineto
            -48 hlineto
            -25 -186 rlineto
            -91 -52 86 hlineto
            -19 -153 rlineto
            -87 -52 80 hlineto
            -24 -207 rlineto
            80 259 rmoveto
            19 153 rlineto
            137 hlineto
            -19 -153 rlineto
            -137 hlineto
            endchar
          </CharString>
          <CharString index="43">
            168 80 105 122 121 80 -105 -168 return
          </CharString>
          <CharString index="44">
            128 539 -34 callsubr
            36 -92 callsubr
            return
          </CharString>
          <CharString index="45">
            -15 449 135 rmoveto
            -33 47 -28 -25 -37 -21 -44 -3 rlinecurve
            354 vlineto
            38 -2 31 -16 27 -25 36 46 rcurveline
            -31 29 -42 26 -59 3 rrcurveto
            105 -47 -107 vlineto
            -111 -15 -88 -82 -139 vvcurveto
            -140 82 -84 117 -12 vhcurveto
            -105 47 104 vlineto
            53 3 50 24 39 35 rrcurveto
            -316 175 rmoveto
            92 50 64 77 17 vhcurveto
            -346 vlineto
            -79 15 -48 65 93 vvcurveto
            endchar
          </CharString>
          <CharString index="46">
            91 44 60 67 8 hvcurveto
            -46 8 rlineto
            -48 -7 -31 -40 -59 hhcurveto
            -59 -31 40 48 -8 hvcurveto
            -46 -8 rlineto
            -67 8 44 -60 92 hhcurveto
            return
          </CharString>
          <CharString index="47">
            -164 137 389 rmoveto
            41 35 22 24 26 hvcurveto
            4 hlineto
            8 -38 rlineto
            44 198 hlineto
            82 -32 49 -79 -52 -49 -23 -19 -31 vhcurveto
            21 -39 rlineto
            16 26 40 19 37 hhcurveto
            48 14 -34 -44 1 hvcurveto
            -139 -14 -61 -35 -70 vvcurveto
            -57 39 -37 59 vhcurveto
            16 46 rmoveto
            -36 -23 16 36 39 37 28 108 12 hvcurveto
            -89 vlineto
            -29 -30 -28 -13 -28 hhcurveto
            endchar
          </CharString>
          <CharString index="48">
            -210 227 -152 rmoveto
            42 42 -28 hlineto
            -55 -15 29 66 hvcurveto
            61 5 53 70 vvcurveto
            61 -15 34 -42 12 vhcurveto
            4 vlineto
            42 12 15 32 63 70 -5 53 61 vvcurveto
            66 15 29 55 vhcurveto
            28 42 -42 hlineto
            -78 -38 -29 -103 hvcurveto
            -73 9 -55 -69 vvcurveto
            -38 -18 -39 -68 -1 vhcurveto
            -46 vlineto
            68 -1 18 -39 -39 -68 -9 -55 -73 vvcurveto
            -103 38 -29 78 vhcurveto
            endchar
          </CharString>
          <CharString index="49">
            -23 -93 -52 -107 vvcurveto
            -88 62 -48 80 vhcurveto
            return
          </CharString>
          <CharString index="50">
            78 92 hmoveto
            205 hlineto
            147 101 64 128 90 -56 52 -80 16 hvcurveto
            4 vlineto
            62 20 35 57 65 vvcurveto
            114 -90 47 -133 vhcurveto
            -191 32 callsubr
            74 375 rmoveto
            223 106 vlineto
            106 55 -30 -81 -69 -48 -43 -118 hvcurveto
            -101 hlineto
            -316 vmoveto
            259 119 vlineto
            120 67 -39 -85 -93 -70 -42 -117 hvcurveto
            -119 hlineto
            return
          </CharString>
          <CharString index="51">
            66 92 hmoveto
            74 212 hlineto
            118 139 201 -351 rlineto
            83 hlineto
            -237 408 206 249 rlineto
            -84 hlineto
            -284 -339 rlineto
            -3 339 48 callsubr
            return
          </CharString>
          <CharString index="52">
            181 67 rmoveto
            -72 callsubr
            return
          </CharString>
          <CharString index="53">
            -20 85 hmoveto
            71 128 hlineto
            96 112 146 -240 rlineto
            80 hlineto
            -184 291 161 194 rlineto
            -81 hlineto
            -215 -265 rlineto
            -3 494 -71 -714 hlineto
            return
          </CharString>
          <CharString index="54">
            98 553 297 rmoveto
            196 -4 -88 68 -115 hhcurveto
            -69 -65 -41 -85 -28 hvcurveto
            -50 120 rlineto
            -80 hlineto
            78 -166 -74 -389 rlineto
            77 hlineto
            70 386 rlineto
            60 15 39 52 77 hhcurveto
            79 61 -49 -152 3 hvcurveto
            5 -187 -71 -88 -163 37 -8 -61 rcurveline
            202 -44 114 112 -5 231 rrcurveto
            return
          </CharString>
          <CharString index="55">
            42 45 27 60 34 hvcurveto
            -42 30 rlineto
            -43 -23 -25 -18 -29 -57 -43 86 -78 hhcurveto
            -42 -45 -27 -62 -34 hvcurveto
            42 -28 rlineto
            43 23 25 18 29 57 43 -86 78 hhcurveto
            return
          </CharString>
          <CharString index="56">
            -88 224 -9 callsubr
            -12 -577 rmoveto
            72 55 35 46 42 hvcurveto
            -42 38 rlineto
            -36 -32 -41 -22 -46 hhcurveto
            -67 -33 46 55 111 160 57 -22 158 hvcurveto
            -64 hlineto
            17 -143 -163 -55 -133 vvcurveto
            -95 64 -62 100 vhcurveto
            endchar
          </CharString>
          <CharString index="57">
            123 105 367 rmoveto
            54 259 101 50 -257 -50 102 -259 hlineto
            205 hmoveto
            51 143 hlineto
            -6 103 35 callsubr
            75 -199 rlineto
            44 hlineto
            75 199 35 callsubr
            -7 -103 rlineto
            -143 51 309 -67 vlineto
            -47 -119 -29 -80 24 callgsubr
            -28 80 -49 119 rlineto
            -67 -309 hlineto
            endchar
          </CharString>
          <CharString index="58">
            573 rmoveto
            38 37 -28 callsubr
            rlineto
            return
          </CharString>
          <CharString index="59">
            -15 209 hmoveto
            73 160 164 44 -164 67 164 43 -145 hlineto
            167 324 rlineto
            -74 hlineto
            -82 -177 -22 -43 -18 -44 -23 -48 26 callgsubr
            -22 47 -19 44 -20 44 -82 177 rcurveline
            -77 hlineto
            165 -324 rlineto
            -143 -43 162 -67 -162 -44 162 -160 hlineto
            endchar
          </CharString>
          <CharString index="60">
            rmoveto
            -3 -3 0 -1 -2 hvcurveto
            57 25 33 48 34 vhcurveto
            -39 callsubr
            vhcurveto
            endchar
          </CharString>
          <CharString index="61">
            449 63 -357 hlineto
            354 550 rlineto
            44 -414 -63 322 vlineto
            -354 -550 rlineto
            -44 vlineto
            return
          </CharString>
          <CharString index="62">
            128 575 412 -100 callgsubr
            return
          </CharString>
          <CharString index="63">
            64 42 41 56 57 -42 41 -64 -65 -42 -41 -57 -56 42 -41 65 hvcurveto
            34 vmoveto
            -33 -26 25 38 39 26 25 33 33 26 -25 -39 -38 -26 -25 -33 hvcurveto
            return
          </CharString>
          <CharString index="64">
            31 callgsubr
            -4 5 158 rlineto
            -63 hlineto
            4 -158 -140 4 30 callsubr
            return
          </CharString>
          <CharString index="65">
            707 rmoveto
            -61 callsubr
            return
          </CharString>
          <CharString index="66">
            -17 -13 -17 -84 callgsubr
            17 -18 hvcurveto
            return
          </CharString>
          <CharString index="67">
            51 hlineto
            364 681 rlineto
            return
          </CharString>
          <CharString index="68">
            -22 35 rlineto
            -65 -39 -36 -56 -77 vvcurveto
            -55 22 -30 36 29 21 19 33 30 -24 17 -26 return
          </CharString>
          <CharString index="69">
            -85 callsubr
            -161 -59 36 callsubr
            return
          </CharString>
          <CharString index="70">
            37 callgsubr
            32 37 -15 callgsubr
            rlineto
            return
          </CharString>
          <CharString index="71">
            -85 -53 callgsubr
            154 hmoveto
            13 callgsubr
          </CharString>
          <CharString index="72">
            -15 80 hmoveto
            353 61 -133 577 -56 hlineto
            -34 -20 -42 -15 -57 -10 rrcurveto
            -47 116 -485 -147 -61 vlineto
            endchar
          </CharString>
          <CharString index="73">
            622 rmoveto
            3 callsubr
            4 callgsubr
            hvcurveto
            return
          </CharString>
          <CharString index="74">
            163 115 133 210 return
          </CharString>
          <CharString index="75">
            -135 326 hmoveto
            -35 208 rlineto
            188 vlineto
            92 -27 52 -79 13 vhcurveto
            -84 13 -11 -60 64 -10 rlineto
            49 -8 11 -30 -63 vvcurveto
            -182 vlineto
            -39 -83 -57 -49 -85 -33 29 -62 rcurveline
            78 27 50 49 37 74 25 -136 rcurveline
            74 hlineto
            return
          </CharString>
          <CharString index="76">
            32 46 hmoveto
            -46 callsubr
            return
          </CharString>
          <CharString index="77">
            rmoveto
            48 callgsubr
            3 callgsubr
            hvcurveto
            endchar
          </CharString>
          <CharString index="78">
            -210 215 -176 rmoveto
            45 22 rlineto
            -78 127 -38 152 153 vvcurveto
            153 38 152 78 127 vhcurveto
            -45 22 rlineto
            -83 -134 -49 -144 -176 vvcurveto
            -176 49 -144 83 -134 vhcurveto
            endchar
          </CharString>
          <CharString index="79">
            -140 164 -52 -48 154 -153 return
          </CharString>
          <CharString index="80">
            70 360 hlineto
            68 -5 67 -4 66 vhcurveto
            4 hlineto
            72 -135 247 -426 rlineto
            77 657 -70 -356 hlineto
            -67 5 -72 4 -66 vhcurveto
            -4 hlineto
            -72 135 -247 426 rlineto
            -77 32 callsubr
            endchar
          </CharString>
          <CharString index="81">
            -36 44 hmoveto
            148 hlineto
            143 81 87 162 hvcurveto
            57 vlineto
            163 -81 86 -143 vhcurveto
            -148 -61 132 hlineto
            110 53 -65 -120 hvcurveto
            -63 vlineto
            -120 -53 -65 -110 vhcurveto
            -132 -61 hlineto
            return
          </CharString>
          <CharString index="82">
            -54 -37 56 106 106 37 54 54 54 36 -54 -106 -106 -36 -56 -54 hvcurveto
            return
          </CharString>
          <CharString index="83">
            -225 116 194 rmoveto
            50 hlineto
            10 388 2 88 rlineto
            -74 hlineto
            2 -88 10 -388 rlineto
            25 -206 -69 callgsubr
          </CharString>
          <CharString index="84">
            -144 181 389 rmoveto
            81 69 63 106 107 -69 61 -81 -82 -69 -61 -107 -106 69 -63 82 hvcurveto
            47 vmoveto
            -57 -36 50 72 73 36 49 57 57 36 -49 -73 -72 -36 -50 -57 hvcurveto
            endchar
          </CharString>
          <CharString index="85">
            74 258 hlineto
            197 399 40 callgsubr
            -89 -191 -20 -48 -23 -46 -24 -48 26 callgsubr
            -23 48 -20 46 -22 48 -88 191 rcurveline
            -79 hlineto
            197 -399 rlineto
            -258 vlineto
            endchar
          </CharString>
          <CharString index="86">
            73 485 -73 15 callsubr
          </CharString>
          <CharString index="87">
            46 hlineto
            14 162 2 86 rlineto
            -78 hlineto
            2 -86 14 -162 rlineto
            return
          </CharString>
          <CharString index="88">
            -265 126 699 rmoveto
            -88 callgsubr
          </CharString>
          <CharString index="89">
            22 callsubr
            579 140 -4 -43 callsubr
            4 -4 -579 rlineto
            endchar
          </CharString>
          <CharString index="90">
            39 402 hmoveto
            77 9 callgsubr
            -251 -61 234 hlineto
            5 callsubr
            -372 vlineto
            -343 hmoveto
            77 337 -66 hlineto
            -11 -67 rlineto
            -270 vlineto
            return
          </CharString>
          <CharString index="91">
            -13 117 rlineto
            -77 hlineto
            13 -117 rlineto
            return
          </CharString>
          <CharString index="92">
            136 -68 50 -100 vhcurveto
            return
          </CharString>
          <CharString index="93">
            199 106 125 206 206 -106 120 -202 hvcurveto
            return
          </CharString>
          <CharString index="94">
            -224 rmoveto
            19 callsubr
            29 67 rlineto
            -49 hlineto
            -43 -91 8 callsubr
            endchar
          </CharString>
          <CharString index="95">
            -84 vlineto
            -66 -5 rlineto
            -55 66 -425 73 425 105 60 -105 83 vlineto
            64 22 34 48 return
          </CharString>
          <CharString index="96">
            rmoveto
            -58 241 -63 hlineto
            -167 -254 rlineto
            -29 177 -107 53 107 58 42 vlineto
            -226 hmoveto
            64 100 52 82 35 callsubr
            -5 -107 rlineto
            -75 -115 vlineto
            endchar
          </CharString>
          <CharString index="97">
            -199 41 222 rmoveto
            227 57 -227 -57 hlineto
            endchar
          </CharString>
          <CharString index="98">
            380 rmoveto
            30 25 23 36 34 -43 callgsubr
            -34 -36 25 -23 30 hvcurveto
            return
          </CharString>
          <CharString index="99">
            77 116 115 return
          </CharString>
          <CharString index="100">
            41 293 231 rmoveto
            31 426 -44 hlineto
            -137 -102 -57 -155 -150 106 -64 146 hvcurveto
            85 -311 rmoveto
            74 737 -74 -737 hlineto
            endchar
          </CharString>
          <CharString index="101">
            vmoveto
            -3 callgsubr
          </CharString>
          <CharString index="102">
            -59 -11 -38 -50 -18 -17 4 4 -12 vhcurveto
            -15 -56 rlineto
            -6 16 25 -6 28 hhcurveto
            return
          </CharString>
          <CharString index="103">
            19 416 61 rmoveto
            44 callgsubr
            -15 callsubr
            -197 -61 180 hlineto
            5 callsubr
            -311 -288 -61 436 61 -71 vlineto
            return
          </CharString>
          <CharString index="104">
            17 -12 15 -18 -93 callsubr
            vhcurveto
            endchar
          </CharString>
          <CharString index="105">
            -139 48 hmoveto
            251 396 hlineto
            92 -45 52 -79 13 vhcurveto
            -87 13 -11 -60 67 -10 rlineto
            49 -8 29 -26 -67 vvcurveto
            -334 -174 -61 vlineto
            return
          </CharString>
          <CharString index="106">
            26 229 hmoveto
            74 594 202 63 -477 -63 201 -594 hlineto
            return
          </CharString>
          <CharString index="107">
            vmoveto
            2 callgsubr
          </CharString>
          <CharString index="108">
            -130 138 10 callgsubr
            84 61 -271 -61 112 hlineto
            -18 -27 -9 -40 -50 vvcurveto
            -377 vlineto
            return
          </CharString>
          <CharString index="109">
            77 438 hlineto
            -16 callsubr
            -438 vlineto
            return
          </CharString>
          <CharString index="110">
            18 12 16 49 callgsubr
            16 -18 return
          </CharString>
          <CharString index="111">
            424 56 -424 -56 hlineto
            return
          </CharString>
          <CharString index="112">
            65 43 -31 -91 hvcurveto
            return
          </CharString>
          <CharString index="113">
            -101 callsubr
            -37 -589 -21 callgsubr
          </CharString>
          <CharString index="114">
            -31 113 555 rmoveto
            162 -71 -223 311 vlineto
            -193 -494 rlineto
            77 hlineto
            193 490 rlineto
            65 -317 vlineto
            return
          </CharString>
          <CharString index="115">
            rlineto
            57 -8 21 -14 -26 vvcurveto
            -29 -26 -16 -84 -5 vhcurveto
            8 -38 rlineto
            return
          </CharString>
          <CharString index="116">
            -98 -157 -162 79 -92 121 return
          </CharString>
          <CharString index="117">
            -94 -161 -161 return
          </CharString>
          <CharString index="118">
            -283 77 210 rmoveto
            76 16 1 63 rlineto
            149 vlineto
            -16 callsubr
            -228 vlineto
            return
          </CharString>
          <CharString index="119">
            -209 149 145 rmoveto
            58 51 48 70 71 -51 47 -58 -57 -52 -47 -71 -70 52 -48 57 hvcurveto
            endchar
          </CharString>
          <CharString index="120">
            -72 callsubr
            endchar
          </CharString>
          <CharString index="121">
            89 58 75 133 131 -58 75 -89 return
          </CharString>
          <CharString index="122">
            -485 hlineto
            endchar
          </CharString>
          <CharString index="123">
            35 hlineto
            68 -84 rmoveto
            -41 callsubr
            endchar
          </CharString>
          <CharString index="124">
            -210 28 -152 rmoveto
            174 860 -174 -42 118 -776 -118 -42 hlineto
            endchar
          </CharString>
          <CharString index="125">
            -210 95 -152 rmoveto
            174 42 -119 776 119 42 -174 -860 hlineto
            endchar
          </CharString>
          <CharString index="126">
            102 5 57 28 56 vvcurveto
            41 -27 19 -45 11 vhcurveto
            return
          </CharString>
          <CharString index="127">
            48 callsubr
            endchar
          </CharString>
          <CharString index="128">
            rmoveto
            -86 callgsubr
            -86 callsubr
            hvcurveto
            endchar
          </CharString>
          <CharString index="129">
            -62 191 -80 rmoveto
            63 hlineto
            -5 return
          </CharString>
          <CharString index="130">
            112 99 97 165 149 return
          </CharString>
          <CharString index="131">
            -91 callsubr
            endchar
          </CharString>
          <CharString index="132">
            -17 -13 -15 return
          </CharString>
          <CharString index="133">
            rlinecurve
            4 hlineto
            return
          </CharString>
          <CharString index="134">
            -154 -11 -245 rrcurveto
            endchar
          </CharString>
          <CharString index="135">
            53 42 36 53 55 -42 35 -53 -54 -41 -35 -55 -53 41 -36 54 hvcurveto
            return
          </CharString>
          <CharString index="136">
            rmoveto
            20 callgsubr
          </CharString>
          <CharString index="137">
            rlineto
            -63 vlineto
            140 return
          </CharString>
          <CharString index="138">
            -12 rmoveto
            43 callsubr
            -363 -681 rlineto
            return
          </CharString>
          <CharString index="139">
            -657 hlineto
            return
          </CharString>
          <CharString index="140">
            293 41 225 rmoveto
            718 52 -718 -52 hlineto
            endchar
          </CharString>
          <CharString index="141">
            -220 rmoveto
            91 36 58 98 hvcurveto
            return
          </CharString>
          <CharString index="142">
            rlineto
            4 hlineto
            return
          </CharString>
          <CharString index="143">
            rmoveto
            -159 -35 return
          </CharString>
          <CharString index="144">
            hlineto
            63 64 -25 26 -105 -109 105 -107 rlineto
            return
          </CharString>
          <CharString index="145">
            -26 -20 -25 -12 -43 -8 rrcurveto
            -38 84 -312 return
          </CharString>
          <CharString index="146">
            -16 -17 13 -15 17 return
          </CharString>
          <CharString index="147">
            14 13 -5 -4 10 vhcurveto
            15 56 rlineto
            7 return
          </CharString>
          <CharString index="148">
            -265 121 return
          </CharString>
          <CharString index="149">
            hhcurveto
            65 30 -41 -93 hvcurveto
            -299 72 return
          </CharString>
          <CharString index="150">
            -40 callsubr
            -52 hlineto
            return
          </CharString>
          <CharString index="151">
            140 -4 31 callgsubr
            return
          </CharString>
          <CharString index="152">
            28 24 -21 -35 -36 -24 -19 -28 return
          </CharString>
          <CharString index="153">
            rmoveto
            88 36 -88 -36 hlineto
            endchar
          </CharString>
          <CharString index="154">
            -15 -12 -23 -23 15 return
          </CharString>
          <CharString index="155">
            -74 32 callsubr
            return
          </CharString>
        <CharString name=".notdef">
          141 90 hmoveto
          468 660 -468 -660 hlineto
          232 383 rmoveto
          -51 94 -71 128 rlineto
          247 hlineto
          -71 -128 -50 -94 24 callgsubr
          -172 -280 rmoveto
          476 vlineto
          132 -239 -132 -237 rlineto
          346 hmoveto
          -131 237 131 239 rlineto
          -476 vlineto
          -309 -49 rmoveto
          79 140 56 103 35 callsubr
          54 -103 78 -140 rlineto
          -271 hlineto
          endchar
        </CharString>
        <CharString name="A">
          32 457 hmoveto
          -105 callsubr
        </CharString>
        <CharString name="AE">
          312 478 63 rmoveto
          252 236 62 -236 217 283 63 -400 vlineto
          -349 -657 rlineto
          78 hlineto
          104 198 rlineto
          210 -198 367 63 -293 hlineto
          -253 194 rmoveto
          64 122 37 73 38 74 36 72 rlinecurve
          4 -341 -179 hlineto
          endchar
        </CharString>
        <CharString name="Aacute">
          32 397 814 rmoveto
          -19 callgsubr
          147 115 rlineto
          60 -814 -103 callgsubr
        </CharString>
        <CharString name="Abreve">
          32 268 -42 callsubr
          189 -707 -103 callgsubr
        </CharString>
        <CharString name="Acircumflex">
          32 266 795 rmoveto
          -58 callgsubr
          111 94 rlineto
          191 -795 -103 callgsubr
        </CharString>
        <CharString name="Adieresis">
          32 166 -97 callsubr
          87 -718 -103 callgsubr
        </CharString>
        <CharString name="Agrave">
          32 318 736 rmoveto
          -15 callgsubr
          32 37 rlineto
          139 -736 -103 callgsubr
        </CharString>
        <CharString name="Amacron">
          32 399 789 rmoveto
          -263 -52 263 52 hlineto
          58 -789 -103 callgsubr
        </CharString>
        <CharString name="Aring">
          32 268 37 callgsubr
          28 callsubr
          145 vmoveto
          45 callsubr
          46 callgsubr
          hvcurveto
          189 -844 -103 callgsubr
        </CharString>
        <CharString name="Atilde">
          32 194 784 rmoveto
          49 25 -73 76 hhcurveto
          -66 callgsubr
          hhcurveto
          263 -784 -103 callgsubr
        </CharString>
        <CharString name="B">
          -57 callsubr
          endchar
        </CharString>
        <CharString name="Bethb">
          33 endchar
        </CharString>
        <CharString name="C">
          62 335 -12 -75 callgsubr
        </CharString>
        <CharString name="Ccaron">
          62 289 -65 callgsubr
          46 -719 -75 callgsubr
        </CharString>
        <CharString name="Ccedilla">
          62 335 -12 -75 callgsubr
        </CharString>
        <CharString name="D">
          -66 callsubr
          endchar
        </CharString>
        <CharString name="E">
          17 92 hmoveto
          -78 callsubr
        </CharString>
        <CharString name="Eacute">
          17 266 -60 callgsubr
          -174 -699 -72 callgsubr
        </CharString>
        <CharString name="Ebreve">
          17 284 -42 callsubr
          -192 -707 -72 callgsubr
        </CharString>
        <CharString name="Ecircumflex">
          17 171 -67 callgsubr
          -79 -701 -72 callgsubr
        </CharString>
        <CharString name="Edieresis">
          17 182 -97 callsubr
          -294 -718 -72 callgsubr
        </CharString>
        <CharString name="Egrave">
          17 302 -37 callsubr
          -210 -699 -72 callgsubr
        </CharString>
        <CharString name="Emacron">
          17 152 -16 callgsubr
          -60 -737 -72 callgsubr
        </CharString>
        <CharString name="Eogonek">
          17 415 -210 rmoveto
          25 33 12 15 18 hvcurveto
          -21 40 rlineto
          -9 -13 -12 -5 -16 hhcurveto
          -25 -24 15 33 54 47 48 46 7 hvcurveto
          3 -82 callsubr
          304 hlineto
          -37 -24 -37 -47 -53 vvcurveto
          -57 41 -29 52 vhcurveto
          endchar
        </CharString>
        <CharString name="Eth">
          127 275 657 rmoveto
          -161 -290 hlineto
          -80 -3 rlineto
          -41 80 -323 164 vlineto
          -14 callsubr
          -6 -596 rmoveto
          -81 262 152 44 -152 229 81 hlineto
          -2 callgsubr
          endchar
        </CharString>
        <CharString name="Euro">
          -102 callsubr
        </CharString>
        <CharString name="Euro.001">
          -102 callsubr
        </CharString>
        <CharString name="Euro.heb">
          33 endchar
        </CharString>
        <CharString name="Euro.heb.001">
          33 endchar
        </CharString>
        <CharString name="Euro.lat">
          -102 callsubr
        </CharString>
        <CharString name="Euro.lat.001">
          -102 callsubr
        </CharString>
        <CharString name="F">
          -17 92 hmoveto
          74 300 254 62 -254 232 300 63 -374 32 callsubr
          endchar
        </CharString>
        <CharString name="G">
          107 345 -12 -93 callgsubr
        </CharString>
        <CharString name="Gcaron">
          107 313 -65 callgsubr
          32 -719 -93 callgsubr
        </CharString>
        <CharString name="Gdotaccent">
          107 351 716 rmoveto
          29 callgsubr
          -6 -728 -93 callgsubr
        </CharString>
        <CharString name="H">
          -25 callgsubr
          endchar
        </CharString>
        <CharString name="Hbar">
          176 649 536 rmoveto
          -72 121 -74 -121 -317 121 -74 -121 hlineto
          -79 -5 rlineto
          -39 79 -492 22 callgsubr
          492 72 44 vlineto
          -146 -157 rmoveto
          -317 113 317 -113 hlineto
          endchar
        </CharString>
        <CharString name="I">
          -250 92 hmoveto
          20 callgsubr
        </CharString>
        <CharString name="Iacute">
          -250 111 -60 callgsubr
          -19 -699 29 callsubr
        </CharString>
        <CharString name="Icircumflex">
          -250 16 -67 callgsubr
          76 -701 29 callsubr
        </CharString>
        <CharString name="Idieresis">
          -250 27 -24 callgsubr
          657 48 callsubr
          endchar
        </CharString>
        <CharString name="Igrave">
          -250 147 -37 callsubr
          -55 -699 29 callsubr
        </CharString>
        <CharString name="Imacron">
          -250 -3 -16 callgsubr
          95 -737 29 callsubr
        </CharString>
        <CharString name="J">
          -32 210 -12 rmoveto
          126 50 90 112 hvcurveto
          467 -74 -460 vlineto
          -102 -35 -42 -73 -49 -38 22 53 -30 vhcurveto
          -53 -37 rlineto
          -67 37 58 -36 81 hhcurveto
          endchar
        </CharString>
        <CharString name="K">
          -56 callsubr
          endchar
        </CharString>
        <CharString name="L">
          -26 92 hmoveto
          365 63 -291 594 20 callsubr
        </CharString>
        <CharString name="Lslash">
          -24 171 63 rmoveto
          215 vlineto
          205 108 -28 48 -177 -94 rlineto
          317 -74 -352 vlineto
          -101 -54 27 -47 74 41 rlineto
          -245 365 63 -291 vlineto
          endchar
        </CharString>
        <CharString name="M">
          214 92 hmoveto
          67 380 hlineto
          56 -5 76 -4 58 vhcurveto
          4 hlineto
          52 -149 129 -353 rlineto
          51 hlineto
          128 353 52 149 35 callsubr
          -3 -58 -6 -76 -56 vvcurveto
          -380 69 657 -91 vlineto
          -128 -360 -16 -46 -14 -47 -17 -46 26 callgsubr
          -16 46 -15 47 -17 46 -128 360 rcurveline
          -92 32 callsubr
          endchar
        </CharString>
        <CharString name="N">
          137 92 hmoveto
          -27 callsubr
        </CharString>
        <CharString name="Ntilde">
          137 402 -56 callgsubr
          -310 -711 rmoveto
          -27 callsubr
        </CharString>
        <CharString name="O">
          154 330 -12 -105 callgsubr
        </CharString>
        <CharString name="OE">
          337 368 hmoveto
          427 63 -292 252 235 62 -235 217 282 63 -414 hlineto
          -204 -115 -120 -206 -206 115 -125 201 hvcurveto
          9 61 rmoveto
          -165 -83 102 168 168 83 97 165 hvcurveto
          52 -535 -52 hlineto
          endchar
        </CharString>
        <CharString name="Oacute">
          154 313 -60 callgsubr
          17 -711 -105 callgsubr
        </CharString>
        <CharString name="Obreve">
          154 331 -42 callsubr
          -1 -719 -105 callgsubr
        </CharString>
        <CharString name="Ocircumflex">
          154 218 -67 callgsubr
          112 -713 -105 callgsubr
        </CharString>
        <CharString name="Odieresis">
          154 229 -97 callsubr
          -103 -730 -105 callgsubr
        </CharString>
        <CharString name="Ograve">
          154 349 -37 callsubr
          -19 -711 -105 callgsubr
        </CharString>
        <CharString name="Omacron">
          154 199 -16 callgsubr
          131 -749 -105 callgsubr
        </CharString>
        <CharString name="Oslash">
          154 613 653 rmoveto
          -42 32 -62 -81 rlineto
          42 -47 -60 23 -69 hhcurveto
          -40 callgsubr
          -96 24 -81 42 -58 hvcurveto
          -70 -92 42 -32 64 83 rlineto
          -43 46 61 -24 69 hhcurveto
          -33 callsubr
          96 -24 79 -42 58 hvcurveto
          68 89 rlineto
          -481 -322 rmoveto
          168 80 105 122 53 45 -20 -37 34 vhcurveto
          -297 -389 rlineto
          -24 46 -13 59 68 vvcurveto
          403 hmoveto
          -169 5 callgsubr
          -54 -46 21 38 -34 vhcurveto
          298 390 rlineto
          24 -45 13 -58 -68 vvcurveto
          endchar
        </CharString>
        <CharString name="Otilde">
          154 407 -56 callgsubr
          -77 -723 -105 callgsubr
        </CharString>
        <CharString name="P">
          55 92 hmoveto
          74 266 112 43 callgsubr
          -96 49 -148 hvcurveto
          -182 32 callsubr
          74 327 rmoveto
          270 97 vlineto
          121 60 -32 -99 -97 -57 -42 -120 hvcurveto
          -101 hlineto
          endchar
        </CharString>
        <CharString name="Q">
          154 605 -90 rmoveto
          -5 -17 -22 -5 -29 hhcurveto
          -74 -60 31 60 -30 hvcurveto
          140 22 95 127 191 vvcurveto
          -77 callsubr
          -194 98 -128 144 -19 vhcurveto
          -88 36 81 -65 118 hhcurveto
          38 34 7 7 19 hvcurveto
          -15 59 rlineto
          -476 421 rmoveto
          -64 callsubr
          -172 5 callgsubr
          -122 -80 109 172 vhcurveto
          endchar
        </CharString>
        <CharString name="R">
          56 537 hmoveto
          -171 291 rlineto
          93 20 61 61 103 vvcurveto
          134 -94 48 -133 vhcurveto
          -201 -657 74 284 124 hlineto
          163 -284 rlineto
          84 hlineto
          -371 597 rmoveto
          115 hlineto
          106 58 -32 -90 -88 -58 -43 -106 hvcurveto
          -115 253 hlineto
          endchar
        </CharString>
        <CharString name="S">
          23 271 -12 -97 callgsubr
          endchar
        </CharString>
        <CharString name="Sacute">
          23 258 -60 callgsubr
          13 -711 -97 callgsubr
          endchar
        </CharString>
        <CharString name="Scaron">
          23 238 -65 callgsubr
          33 -719 -97 callgsubr
          endchar
        </CharString>
        <CharString name="T">
          -1 callsubr
          endchar
        </CharString>
        <CharString name="Thorn">
          71 92 hmoveto
          74 154 122 43 callgsubr
          -94 49 -146 hvcurveto
          -122 112 48 callsubr
          74 214 rmoveto
          270 111 vlineto
          119 58 -31 -99 -97 -57 -43 -120 hvcurveto
          -111 hlineto
          endchar
        </CharString>
        <CharString name="U">
          136 321 -12 -91 callgsubr
        </CharString>
        <CharString name="Uacute">
          136 303 -60 callgsubr
          18 -711 -91 callgsubr
        </CharString>
        <CharString name="Ucircumflex">
          136 208 -67 callgsubr
          113 -713 -91 callgsubr
        </CharString>
        <CharString name="Udieresis">
          136 219 -97 callsubr
          -102 -730 -91 callgsubr
        </CharString>
        <CharString name="Ugrave">
          136 339 -37 callsubr
          -18 -711 -91 callgsubr
        </CharString>
        <CharString name="Umacron">
          136 189 -16 callgsubr
          132 -749 -91 callgsubr
        </CharString>
        <CharString name="V">
          -20 callgsubr
          endchar
        </CharString>
        <CharString name="W">
          275 166 hmoveto
          87 hlineto
          102 409 12 52 12 47 10 50 26 callsubr
          10 -50 11 -47 11 -52 105 -409 rcurveline
          88 hlineto
          139 657 rlineto
          -72 hlineto
          -72 -365 -14 -70 -12 -71 -13 -72 26 callgsubr
          -16 72 -17 71 -16 70 -94 365 rcurveline
          -68 hlineto
          -95 -365 -16 -71 -16 -71 -15 -71 26 callgsubr
          -13 71 -14 71 -13 71 -72 365 rcurveline
          -77 hlineto
          142 -657 rlineto
          endchar
        </CharString>
        <CharString name="X">
          -2 16 hmoveto
          78 hlineto
          99 183 17 33 17 32 20 40 26 callsubr
          21 -40 18 -32 18 -33 101 -183 rcurveline
          81 hlineto
          -193 336 180 321 rlineto
          -77 hlineto
          -93 -175 -16 -30 -13 -26 -18 -38 26 callgsubr
          -21 38 -14 26 -16 30 -95 175 rcurveline
          -81 hlineto
          180 -317 -193 -340 rlineto
          endchar
        </CharString>
        <CharString name="Y">
          -39 197 hmoveto
          -22 callsubr
        </CharString>
        <CharString name="Yacute">
          -39 216 -60 callgsubr
          -19 -699 rmoveto
          -22 callsubr
        </CharString>
        <CharString name="Ydieresis">
          -39 132 -24 callgsubr
          258 hlineto
          197 399 40 callgsubr
          -89 -191 -20 -48 -23 -46 -24 -48 26 callgsubr
          -23 48 -20 46 -22 48 -88 191 rcurveline
          -79 hlineto
          197 -399 rlineto
          -258 vlineto
          endchar
        </CharString>
        <CharString name="Z">
          -31 callsubr
          endchar
        </CharString>
        <CharString name="ZWJ">
          -150 785 rmoveto
          34 73 233 -73 34 109 -301 -109 hlineto
          endchar
        </CharString>
        <CharString name="ZWNJ">
          -81 767 rmoveto
          81 81 79 -80 24 24 -79 83 79 82 -24 25 -79 -82 -81 84 -23 -27 78 -82 -78 -83 23 -25 rlineto
          endchar
        </CharString>
        <CharString name="Zcaron">
          32 242 -65 callgsubr
          -196 -707 rmoveto
          -46 callsubr
          endchar
        </CharString>
        <CharString name="a">
          -6 195 -12 -107 callsubr
        </CharString>
        <CharString name="a.sups">
          -60 callsubr
        </CharString>
        <CharString name="aacute">
          -6 252 -68 callgsubr
          -57 -585 -107 callsubr
        </CharString>
        <CharString name="abreve">
          -6 269 -41 callgsubr
          -74 -583 -107 callsubr
        </CharString>
        <CharString name="acircumflex">
          -6 151 -83 callgsubr
          44 -581 -107 callsubr
        </CharString>
        <CharString name="acute">
          33 253 -68 callgsubr
          endchar
        </CharString>
        <CharString name="acutecomb">
          -17 -68 callgsubr
          endchar
        </CharString>
        <CharString name="acutecomb.cap">
          -18 -60 callgsubr
          endchar
        </CharString>
        <CharString name="adieresis">
          -6 175 -98 callgsubr
          -168 -602 -107 callsubr
        </CharString>
        <CharString name="ae">
          278 202 -12 rmoveto
          62 72 33 60 65 hvcurveto
          -49 37 52 -44 82 hhcurveto
          67 47 23 27 42 hvcurveto
          -28 51 rlineto
          -24 -36 -35 -17 -48 hhcurveto
          -87 -67 72 106 -3 hvcurveto
          319 hlineto
          3 12 1 15 16 vvcurveto
          139 -66 89 -118 -67 -57 -42 -66 -37 vhcurveto
          65 -20 -46 43 -74 hhcurveto
          -72 -66 -36 -28 -42 hvcurveto
          29 -50 rlineto
          25 36 52 28 55 hhcurveto
          83 20 -65 -65 hvcurveto
          -204 -58 callsubr
          223 287 rmoveto
          99 9 58 64 70 hhcurveto
          77 44 -57 -106 hvcurveto
          -258 hlineto
          -204 -228 rmoveto
          -49 -40 24 58 66 62 42 162 20 hvcurveto
          1 -25 1 -39 6 -40 12 -27 rlinecurve
          -50 -47 -61 -29 -47 hhcurveto
          endchar
        </CharString>
        <CharString name="agrave">
          -6 287 -49 callsubr
          -92 -585 -107 callsubr
        </CharString>
        <CharString name="alphalatin">
          45 249 -12 rmoveto
          60 54 34 38 37 hvcurveto
          3 hlineto
          -47 5 19 -25 42 hhcurveto
          18 10 3 3 10 hvcurveto
          -3 57 rlineto
          -2 -9 -4 0 -3 hhcurveto
          -12 -8 9 22 hvcurveto
          405 -60 vlineto
          -6 -48 rlineto
          -2 hlineto
          39 -44 -40 21 -55 hhcurveto
          -112 -100 -71 callsubr
          endchar
        </CharString>
        <CharString name="amacron">
          -6 139 0 callgsubr
          56 -614 -107 callsubr
        </CharString>
        <CharString name="ampersand">
          -80 callgsubr
        </CharString>
        <CharString name="ampersand.lat">
          -80 callgsubr
        </CharString>
        <CharString name="approxequal">
          -15 334 365 rmoveto
          -52 callsubr
          -212 vmoveto
          -52 callsubr
          endchar
        </CharString>
        <CharString name="aring">
          -6 269 553 rmoveto
          -44 callsubr
          -74 -599 -107 callsubr
        </CharString>
        <CharString name="asciicircum">
          -6 callgsubr
        </CharString>
        <CharString name="asciicircum.lat">
          -6 callgsubr
        </CharString>
        <CharString name="asciitilde">
          -15 334 259 rmoveto
          -52 callsubr
          endchar
        </CharString>
        <CharString name="asterisk">
          -13 callgsubr
        </CharString>
        <CharString name="asterisk.lat">
          -13 callgsubr
        </CharString>
        <CharString name="at">
          -85 callgsubr
        </CharString>
        <CharString name="at.lat">
          -85 callgsubr
        </CharString>
        <CharString name="atilde">
          -6 342 -87 callsubr
          -147 -590 -107 callsubr
        </CharString>
        <CharString name="b">
          -51 callgsubr
          endchar
        </CharString>
        <CharString name="backslash">
          17 callgsubr
        </CharString>
        <CharString name="backslash.lat">
          17 callgsubr
        </CharString>
        <CharString name="bar">
          -270 92 -250 rmoveto
          53 1000 -53 -1000 hlineto
          endchar
        </CharString>
        <CharString name="braceleft">
          -59 callsubr
        </CharString>
        <CharString name="braceleft.lat">
          -59 callsubr
        </CharString>
        <CharString name="braceright">
          -59 callgsubr
        </CharString>
        <CharString name="braceright.lat">
          -59 callgsubr
        </CharString>
        <CharString name="bracketleft">
          18 callsubr
        </CharString>
        <CharString name="bracketleft.lat">
          18 callsubr
        </CharString>
        <CharString name="bracketright">
          17 callsubr
        </CharString>
        <CharString name="bracketright.lat">
          17 callsubr
        </CharString>
        <CharString name="breve">
          33 270 -41 callgsubr
          endchar
        </CharString>
        <CharString name="brokenbar">
          -270 92 585 rmoveto
          -664 53 664 -53 vlineto
          endchar
        </CharString>
        <CharString name="bullet">
          12 callsubr
        </CharString>
        <CharString name="bullet.lat">
          12 callsubr
        </CharString>
        <CharString name="c">
          -53 272 -12 -35 callgsubr
        </CharString>
        <CharString name="caron">
          33 234 -81 callsubr
          endchar
        </CharString>
        <CharString name="ccaron">
          -53 236 -81 callsubr
          36 -586 -35 callgsubr
        </CharString>
        <CharString name="ccedilla">
          -53 273 -64 rmoveto
          23 53 50 6 46 22 37 33 rlinecurve
          -55 callgsubr
          -150 84 -91 116 -12 hvcurveto
          -37 -77 8 callsubr
          19 callsubr
          endchar
        </CharString>
        <CharString name="cedilla">
          33 186 -13 callsubr
        </CharString>
        <CharString name="cent">
          -62 callsubr
        </CharString>
        <CharString name="cent.heb">
          33 endchar
        </CharString>
        <CharString name="cent.lat">
          -62 callsubr
        </CharString>
        <CharString name="chi">
          -33 82 -191 rmoveto
          155 294 35 callsubr
          168 -294 71 19 -205 336 173 321 rlineto
          -77 hlineto
          -130 -256 24 callgsubr
          -152 268 -72 -20 189 -314 -193 -342 73 -12 rlineto
          endchar
        </CharString>
        <CharString name="circledotted">
          80 325 489 rmoveto
          -19 -15 -14 -22 -23 15 -14 19 21 14 14 23 22 -15 14 -20 hvcurveto
          -138 -19 rmoveto
          -19 -15 -12 -24 -22 15 -14 19 20 14 14 22 24 -15 12 -19 hvcurveto
          235 -122 rmoveto
          22 13 14 23 4 -1 4 -1 4 hvcurveto
          1 3 1 5 4 vvcurveto
          24 -16 12 -19 -18 -15 -12 -24 -4 1 -4 1 -4 vhcurveto
          -1 -4 -1 -4 -4 vvcurveto
          -23 16 -14 17 vhcurveto
          -314 41 rmoveto
          -18 -15 -12 -23 -24 15 -14 18 22 13 14 24 23 -14 12 -21 hvcurveto
          8 -146 rmoveto
          23 -15 12 -21 -18 47 callsubr
          -14 18 22 14 14 23 vhcurveto
          389 35 rmoveto
          -20 47 callsubr
          -14 20 20 14 14 23 23 -17 12 -17 hvcurveto
          -397 -109 rmoveto
          -18 -15 -13 -23 -22 15 -14 18 22 13 14 22 23 -14 13 -21 hvcurveto
          369 hmoveto
          -18 -16 -13 -23 -22 16 -14 18 21 13 14 22 23 -15 13 -19 hvcurveto
          -290 -83 rmoveto
          -19 -15 -12 -21 -25 15 -13 19 20 14 13 25 21 -15 12 -19 hvcurveto
          211 hmoveto
          -18 -15 -12 -21 -25 15 -13 18 21 14 13 25 21 -16 12 -19 hvcurveto
          -106 -27 rmoveto
          -18 47 callsubr
          -13 18 21 14 13 23 23 -14 12 -21 hvcurveto
          endchar
        </CharString>
        <CharString name="circumflex">
          33 152 -83 callgsubr
          endchar
        </CharString>
        <CharString name="colon">
          16 callgsubr
          -366 vmoveto
          24 callsubr
        </CharString>
        <CharString name="comma">
          -265 124 105 -7 callgsubr
        </CharString>
        <CharString name="copyright">
          -78 callgsubr
        </CharString>
        <CharString name="copyright.lat">
          -78 callgsubr
        </CharString>
        <CharString name="currency">
          -15 67 105 rmoveto
          66 69 rlineto
          -25 32 39 -14 42 hhcurveto
          40 40 14 25 31 hvcurveto
          68 -69 39 41 -64 66 rlineto
          22 31 15 40 46 vvcurveto
          46 -14 41 -23 31 vhcurveto
          64 66 -39 41 -67 -69 rlineto
          25 -32 -40 14 -40 hhcurveto
          -42 -39 -14 -25 -31 hvcurveto
          -67 69 -40 -41 64 -66 rlineto
          -23 -31 -13 -41 -46 vvcurveto
          -46 13 -40 23 -31 vhcurveto
          -64 -66 40 -41 rlineto
          179 85 rmoveto
          -67 -56 56 83 82 56 58 67 67 56 -58 -82 -83 -56 -56 -67 hvcurveto
          endchar
        </CharString>
        <CharString name="d">
          -84 callsubr
          endchar
        </CharString>
        <CharString name="dagger">
          -18 callsubr
        </CharString>
        <CharString name="dagger.lat">
          -18 callsubr
        </CharString>
        <CharString name="daggerdbl">
          -50 callgsubr
        </CharString>
        <CharString name="daggerdbl.lat">
          -50 callgsubr
        </CharString>
        <CharString name="degree">
          -22 callgsubr
        </CharString>
        <CharString name="degree.lat">
          -22 callgsubr
        </CharString>
        <CharString name="dieresis">
          33 176 -98 callgsubr
          endchar
        </CharString>
        <CharString name="divide">
          -15 246 459 27 callgsubr
          -212 -157 45 callgsubr
          212 -203 27 callgsubr
          endchar
        </CharString>
        <CharString name="dollar">
          -57 callgsubr
        </CharString>
        <CharString name="dollar.heb">
          33 endchar
        </CharString>
        <CharString name="dollar.lat">
          -57 callgsubr
        </CharString>
        <CharString name="dotaccent">
          33 270 21 callgsubr
          endchar
        </CharString>
        <CharString name="dotbelowcomb">
          -203 -6 callsubr
        </CharString>
        <CharString name="dotlessi">
          -265 85 hmoveto
          -21 callsubr
        </CharString>
        <CharString name="dotlessj">
          -276 33 34 callsubr
          549 -72 vlineto
          -1 -548 rlineto
          -5 callsubr
          endchar
        </CharString>
        <CharString name="e">
          -15 455 270 -104 callsubr
        </CharString>
        <CharString name="e.sups">
          -47 callgsubr
        </CharString>
        <CharString name="eacute">
          -15 402 726 rmoveto
          -27 callgsubr
          153 153 rlineto
          53 -456 -104 callsubr
        </CharString>
        <CharString name="ebreve">
          -15 266 -41 callgsubr
          189 -301 -104 callsubr
        </CharString>
        <CharString name="ecircumflex">
          -15 264 685 rmoveto
          -73 callgsubr
          116 116 rlineto
          191 -415 -104 callsubr
        </CharString>
        <CharString name="edieresis">
          -15 172 -98 callgsubr
          95 -320 -104 callsubr
        </CharString>
        <CharString name="egrave">
          -15 322 610 rmoveto
          -28 callsubr
          38 37 rlineto
          133 -340 -104 callsubr
        </CharString>
        <CharString name="eight">
          -94 callsubr
        </CharString>
        <CharString name="eight.heb">
          -94 callsubr
        </CharString>
        <CharString name="eight.lat">
          -94 callsubr
        </CharString>
        <CharString name="eight.pnumheb">
          -15 endchar
        </CharString>
        <CharString name="eight.pnumlat">
          -15 endchar
        </CharString>
        <CharString name="ellipsis">
          491 166 -12 -79 callgsubr
          334 hmoveto
          -91 callsubr
          334 hmoveto
          24 callsubr
        </CharString>
        <CharString name="emacron">
          -15 396 654 rmoveto
          -260 -52 260 52 hlineto
          59 -384 -104 callsubr
        </CharString>
        <CharString name="emdash">
          33 callsubr
        </CharString>
        <CharString name="emdash.lat">
          33 callsubr
        </CharString>
        <CharString name="endash">
          34 callgsubr
        </CharString>
        <CharString name="endash.lat">
          34 callgsubr
        </CharString>
        <CharString name="eogonek">
          -15 357 -205 rmoveto
          24 32 11 15 19 hvcurveto
          -20 37 rlineto
          -9 -13 -12 -4 -16 hhcurveto
          -25 -22 16 32 42 25 40 86 63 hvcurveto
          -36 callgsubr
          -97 -65 71 108 -5 hvcurveto
          332 hlineto
          2 12 2 16 16 vvcurveto
          -79 callsubr
          18 17 1 7 18 vhcurveto
          -27 -24 -34 -43 -50 vvcurveto
          -56 38 -28 50 vhcurveto
          -238 484 rmoveto
          101 10 64 58 72 hhcurveto
          78 47 -55 -104 hvcurveto
          -271 hlineto
          endchar
        </CharString>
        <CharString name="eogonek.sups">
          -47 callgsubr
        </CharString>
        <CharString name="equal">
          -15 34 408 45 callgsubr
          -212 vmoveto
          4 callsubr
          endchar
        </CharString>
        <CharString name="estimated">
          293 400 -12 rmoveto
          114 102 52 80 66 hvcurveto
          -52 hlineto
          -68 -56 -82 -44 -90 hhcurveto
          -86 -78 38 62 -54 hvcurveto
          -4 6 -4 6 8 vvcurveto
          184 vlineto
          2 2 2 2 vhcurveto
          574 8 hlineto
          186 -158 150 -196 -196 -158 -150 -186 -186 158 -150 196 vhcurveto
          -220 346 rmoveto
          -2 -2 2 4 hvcurveto
          180 vlineto
          8 4 8 4 6 vhcurveto
          60 56 76 38 86 hhcurveto
          82 76 -36 -58 56 hvcurveto
          6 -6 4 -8 -8 vvcurveto
          -184 vlineto
          -4 -2 -2 -4 vhcurveto
          -440 hlineto
          endchar
        </CharString>
        <CharString name="eth">
          35 346 605 rmoveto
          130 67 -22 38 -142 -73 -42 36 -48 30 -48 26 rlinecurve
          -34 -47 42 -23 39 -24 34 -28 rlinecurve
          -128 -66 22 -37 141 72 52 -50 39 -63 18 -86 rlinecurve
          47 -35 -51 21 -52 hhcurveto
          -118 -88 -89 -134 -146 102 -88 112 127 85 107 161 159 -55 109 -80 81 hvcurveto
          -76 -556 rmoveto
          -79 -67 69 104 93 53 73 94 46 46 -15 -62 46 hvcurveto
          1 -19 1 -19 -20 vvcurveto
          -119 -46 -85 -95 vhcurveto
          endchar
        </CharString>
        <CharString name="exclam">
          -24 callsubr
        </CharString>
        <CharString name="exclam.lat">
          -24 callsubr
        </CharString>
        <CharString name="exclamdown">
          -225 141 -9 callsubr
          -37 -565 rmoveto
          74 hlineto
          -2 87 -10 389 rlineto
          -50 hlineto
          -10 -389 -2 -87 rlineto
          endchar
        </CharString>
        <CharString name="exclamdown.lat">
          -225 endchar
        </CharString>
        <CharString name="f">
          -223 239 666 rmoveto
          17 20 -4 -8 18 hvcurveto
          14 callgsubr
          -12 callsubr
          vhcurveto
          endchar
        </CharString>
        <CharString name="fi">
          19 -23 callgsubr
          310 20 6 callsubr
        </CharString>
        <CharString name="five">
          -81 callgsubr
        </CharString>
        <CharString name="five.heb">
          -81 callgsubr
        </CharString>
        <CharString name="five.lat">
          -81 callgsubr
        </CharString>
        <CharString name="five.pnumheb">
          -15 endchar
        </CharString>
        <CharString name="five.pnumlat">
          -15 endchar
        </CharString>
        <CharString name="fl">
          27 -23 callgsubr
          386 -518 rmoveto
          -12 callgsubr
          39 callgsubr
          vhcurveto
          -10 56 rlineto
          endchar
        </CharString>
        <CharString name="florin">
          -64 callgsubr
        </CharString>
        <CharString name="florin.heb">
          33 endchar
        </CharString>
        <CharString name="florin.lat">
          -64 callgsubr
        </CharString>
        <CharString name="four">
          -70 callsubr
        </CharString>
        <CharString name="four.heb">
          -70 callsubr
        </CharString>
        <CharString name="four.lat">
          -70 callsubr
        </CharString>
        <CharString name="four.pnumheb">
          -15 endchar
        </CharString>
        <CharString name="four.pnumlat">
          -15 endchar
        </CharString>
        <CharString name="fraction">
          -54 callgsubr
        </CharString>
        <CharString name="fraction.lat">
          -54 callgsubr
        </CharString>
        <CharString name="g">
          -7 247 -226 -104 callgsubr
        </CharString>
        <CharString name="gammalatin">
          -48 254 35 rmoveto
          19 hlineto
          174 450 rlineto
          -72 hlineto
          -96 -267 -15 -45 -16 -35 -15 -43 26 callgsubr
          -15 43 -16 35 -15 45 -96 267 rcurveline
          -75 hlineto
          177 -450 rlineto
          19 hlineto
          -15 0 -15 1 -14 vhcurveto
          -12 -45 -9 -33 -31 vvcurveto
          -40 10 -28 24 -7 vhcurveto
          -8 3 3 -5 3 hhcurveto
          3 3 5 8 3 hvcurveto
          25 5 10 29 41 vvcurveto
          31 -9 34 -13 46 vhcurveto
          1 14 0 13 15 vvcurveto
          endchar
        </CharString>
        <CharString name="gcaron">
          -7 222 -81 callsubr
          25 -800 -104 callgsubr
        </CharString>
        <CharString name="gdotaccent">
          -7 258 21 callgsubr
          -11 -815 -104 callgsubr
        </CharString>
        <CharString name="germandbls">
          60 383 -12 rmoveto
          95 61 63 83 hvcurveto
          164 -200 -25 101 72 93 34 101 vvcurveto
          78 -57 65 -100 -120 -70 -80 -125 vhcurveto
          -519 72 504 vlineto
          107 44 53 72 57 30 -38 -52 vhcurveto
          -86 -91 -30 -92 -140 201 26 -122 vvcurveto
          -44 -31 -41 -58 -39 -33 15 29 -36 vhcurveto
          -30 -51 rlineto
          -31 40 45 -19 55 hhcurveto
          endchar
        </CharString>
        <CharString name="glottalstopreversedsupmod">
          -211 133 397 rmoveto
          56 214 hlineto
          -78 45 -35 36 55 vvcurveto
          50 34 33 57 42 28 -23 -25 21 vhcurveto
          29 36 rlineto
          29 -25 -40 29 -59 hhcurveto
          -80 -63 -44 -84 -75 47 -42 66 -44 hvcurveto
          -190 vlineto
          endchar
        </CharString>
        <CharString name="grave">
          33 288 -49 callsubr
          endchar
        </CharString>
        <CharString name="gravecomb">
          18 -49 callsubr
          endchar
        </CharString>
        <CharString name="gravecomb.cap">
          18 -37 callsubr
          endchar
        </CharString>
        <CharString name="greater">
          -15 34 135 rmoveto
          424 167 rlineto
          60 vlineto
          -424 167 rlineto
          -64 vlineto
          350 -131 rlineto
          -4 vlineto
          -350 -131 rlineto
          -64 vlineto
          endchar
        </CharString>
        <CharString name="greaterequal">
          -15 34 153 rmoveto
          424 154 rlineto
          68 vlineto
          -424 154 rlineto
          -64 vlineto
          215 -77 135 -45 rlineto
          -4 vlineto
          -135 -45 -215 -77 rlineto
          -64 vlineto
          -153 vmoveto
          4 callsubr
          endchar
        </CharString>
        <CharString name="guillemotleft">
          -37 callgsubr
        </CharString>
        <CharString name="guillemotleft.lat">
          -37 callgsubr
        </CharString>
        <CharString name="guillemotright">
          -36 callsubr
        </CharString>
        <CharString name="guillemotright.lat">
          -36 callsubr
        </CharString>
        <CharString name="guilsinglleft">
          -239 -55 callsubr
          endchar
        </CharString>
        <CharString name="guilsinglleft.lat">
          -239 -55 callsubr
          endchar
        </CharString>
        <CharString name="guilsinglright">
          -239 -53 callgsubr
          endchar
        </CharString>
        <CharString name="guilsinglright.lat">
          -239 -53 callgsubr
          endchar
        </CharString>
        <CharString name="h">
          -77 callgsubr
          endchar
        </CharString>
        <CharString name="hbar">
          33 318 459 rmoveto
          -67 -49 -37 -46 -47 hvcurveto
          3 102 rlineto
          96 183 43 -183 97 -73 -97 vlineto
          -75 -4 rlineto
          -39 75 -574 73 317 vlineto
          -33 callgsubr
          -261 72 270 vlineto
          124 -46 65 -101 vhcurveto
          endchar
        </CharString>
        <CharString name="hungarumlaut">
          33 220 8 callgsubr
        </CharString>
        <CharString name="hyphen">
          -10 callsubr
        </CharString>
        <CharString name="i">
          -265 122 589 6 callsubr
        </CharString>
        <CharString name="iacute">
          -265 105 -68 callgsubr
          -20 -573 -21 callgsubr
        </CharString>
        <CharString name="icircumflex">
          -265 4 -83 callgsubr
          81 -569 -21 callgsubr
        </CharString>
        <CharString name="idieresis">
          -265 28 -98 callgsubr
          -131 -590 -21 callgsubr
        </CharString>
        <CharString name="igrave">
          -265 140 -49 callsubr
          -55 -573 -21 callgsubr
        </CharString>
        <CharString name="imacron">
          -265 -8 0 callgsubr
          93 -602 -21 callgsubr
        </CharString>
        <CharString name="infinity">
          270 568 152 rmoveto
          98 71 74 109 100 -70 72 -99 -85 -63 -60 -63 -46 hvcurveto
          -4 hlineto
          48 -36 -53 59 -82 hhcurveto
          -90 -69 -64 -102 -86 68 -69 80 85 55 65 40 35 hvcurveto
          4 hlineto
          -74 60 56 -49 85 hhcurveto
          1 70 rmoveto
          -62 -47 40 77 -58 hvcurveto
          71 50 50 40 60 hhcurveto
          74 43 -50 -68 -60 -41 -50 -69 hvcurveto
          -374 5 rmoveto
          -54 -43 42 59 58 40 35 56 52 45 -40 -59 43 hvcurveto
          -52 -35 -47 -43 -57 hhcurveto
          endchar
        </CharString>
        <CharString name="integral">
          -183 99 -158 rmoveto
          108 23 97 129 hvcurveto
          145 -42 208 145 vvcurveto
          104 11 61 56 14 12 -1 -3 8 vhcurveto
          9 56 rlineto
          3 -8 -18 3 -19 hhcurveto
          -109 -23 -98 -128 hvcurveto
          -145 43 -209 -145 vvcurveto
          -105 -10 -59 -57 -14 -12 2 2 -9 vhcurveto
          -9 -55 rlineto
          -4 9 17 -3 20 hhcurveto
          endchar
        </CharString>
        <CharString name="ismall">
          -174 46 hmoveto
          242 60 -85 365 85 60 -242 -60 85 -365 -85 -60 hlineto
          endchar
        </CharString>
        <CharString name="j">
          -265 122 21 callgsubr
          -35 -652 rmoveto
          -5 callsubr
          91 36 58 98 hvcurveto
          549 -72 vlineto
          -1 -548 rlineto
          endchar
        </CharString>
        <CharString name="j.sups">
          -341 84 783 rmoveto
          23 17 15 22 21 -17 16 -23 -22 -17 -16 -21 -22 17 -15 22 hvcurveto
          -61 -532 rmoveto
          62 26 41 71 hvcurveto
          355 -55 -359 vlineto
          -39 -8 -21 -32 -13 -7 2 3 -9 vhcurveto
          -12 -45 rlineto
          -5 16 11 -3 21 hhcurveto
          endchar
        </CharString>
        <CharString name="k">
          -54 callsubr
          endchar
        </CharString>
        <CharString name="l">
          -10 callgsubr
        </CharString>
        <CharString name="lefttorightembed">
          33 callgsubr
          -76 -36 76 hlineto
          -63 -66 25 -25 rlineto
          -168 91 46 callsubr
        </CharString>
        <CharString name="less">
          -15 458 135 rmoveto
          64 vlineto
          -349 131 rlineto
          4 vlineto
          349 131 rlineto
          64 vlineto
          -424 -167 rlineto
          -60 vlineto
          424 -167 rlineto
          endchar
        </CharString>
        <CharString name="lessequal">
          -15 458 153 rmoveto
          64 vlineto
          -215 77 -134 45 rlineto
          4 vlineto
          134 45 215 77 rlineto
          64 vlineto
          -424 -154 rlineto
          -68 vlineto
          424 -154 rlineto
          -424 -153 45 callgsubr
          endchar
        </CharString>
        <CharString name="litre">
          -107 361 94 rmoveto
          -23 -24 -26 -21 -41 hhcurveto
          -50 -42 37 96 hvcurveto
          37 vlineto
          119 105 76 123 127 vvcurveto
          98 -53 53 -74 -78 -61 -60 -153 vhcurveto
          -280 vlineto
          -26 -21 -28 -21 -30 -19 30 -47 rcurveline
          19 12 18 13 17 13 rrcurveto
          -115 3 69 -60 81 hhcurveto
          56 43 32 29 32 hvcurveto
          -30 45 rlineto
          -113 575 rmoveto
          35 26 -26 -70 -97 -51 -94 -80 -83 hvcurveto
          228 vlineto
          98 33 44 37 vhcurveto
          endchar
        </CharString>
        <CharString name="logicalnot">
          -15 399 105 rmoveto
          59 253 -424 -56 365 -197 hlineto
          endchar
        </CharString>
        <CharString name="lozenge">
          5 222 -10 rmoveto
          69 hlineto
          164 340 -164 340 rlineto
          -69 hlineto
          -165 -340 165 -340 rlineto
          32 61 rmoveto
          -64 135 -67 144 131 279 35 callsubr
          64 -136 68 -143 -132 -279 24 callgsubr
          endchar
        </CharString>
        <CharString name="lslash">
          -251 184 49 rmoveto
          -12 -10 10 24 hvcurveto
          296 vlineto
          80 50 -27 47 -53 -34 rlineto
          272 -73 -310 vlineto
          -88 -55 27 -47 61 38 rlineto
          -251 vlineto
          -66 24 -35 56 39 callgsubr
          vhcurveto
          -10 56 rlineto
          -2 -9 -4 0 -5 hhcurveto
          endchar
        </CharString>
        <CharString name="m">
          318 85 hmoveto
          73 355 hlineto
          52 47 42 26 38 42 callsubr
          355 vlineto
          52 47 41 26 40 42 callsubr
          44 callgsubr
          124 -48 65 -99 -58 -51 -38 -56 -52 vhcurveto
          57 -19 -39 37 -75 hhcurveto
          -57 -52 -37 -47 -43 hvcurveto
          25 callgsubr
        </CharString>
        <CharString name="macron">
          33 140 0 callgsubr
          endchar
        </CharString>
        <CharString name="minus">
          -15 34 302 45 callgsubr
          endchar
        </CharString>
        <CharString name="multiply">
          -15 90 128 rmoveto
          156 162 156 -162 39 41 -156 161 156 160 -39 41 -156 -162 -156 162 -40 -41 156 -160 -156 -161 40 -41 rlineto
          endchar
        </CharString>
        <CharString name="n">
          36 85 hmoveto
          -76 callsubr
          -50 -37 -47 -47 vhcurveto
          25 callgsubr
        </CharString>
        <CharString name="newsheqel">
          -15 endchar
        </CharString>
        <CharString name="newsheqel.heb">
          33 endchar
        </CharString>
        <CharString name="newsheqel.lat">
          -27 endchar
        </CharString>
        <CharString name="nine">
          -89 callsubr
        </CharString>
        <CharString name="nine.heb">
          -89 callsubr
        </CharString>
        <CharString name="nine.lat">
          -89 callsubr
        </CharString>
        <CharString name="nine.pnumheb">
          -15 endchar
        </CharString>
        <CharString name="nine.pnumlat">
          -15 endchar
        </CharString>
        <CharString name="notequal">
          -15 62 69 rmoveto
          56 hlineto
          77 127 rlineto
          263 56 -231 hlineto
          94 156 rlineto
          137 56 -105 hlineto
          77 127 rlineto
          -55 hlineto
          -77 -127 rlineto
          -264 -56 231 hlineto
          -94 -156 rlineto
          -137 -56 105 hlineto
          -77 -127 rlineto
          endchar
        </CharString>
        <CharString name="ntilde">
          36 364 -87 callsubr
          -279 -578 rmoveto
          -76 callsubr
          -50 -37 -47 -47 vhcurveto
          25 callgsubr
        </CharString>
        <CharString name="numbersign">
          -65 callsubr
        </CharString>
        <CharString name="numbersign.heb">
          33 endchar
        </CharString>
        <CharString name="numbersign.lat">
          -65 callsubr
        </CharString>
        <CharString name="o">
          33 270 -12 -100 callsubr
        </CharString>
        <CharString name="o.sups">
          -23 callsubr
        </CharString>
        <CharString name="oacute">
          33 253 -68 callgsubr
          17 -585 -100 callsubr
        </CharString>
        <CharString name="obreve">
          33 270 -41 callgsubr
          -583 vmoveto
          -101 callgsubr
        </CharString>
        <CharString name="ocircumflex">
          33 152 -83 callgsubr
          118 -581 -100 callsubr
        </CharString>
        <CharString name="odieresis">
          33 176 -98 callgsubr
          -94 -602 -100 callsubr
        </CharString>
        <CharString name="oe">
          334 263 -12 rmoveto
          82 62 43 83 37 hvcurveto
          -78 37 67 -48 78 hhcurveto
          67 50 23 27 41 hvcurveto
          -27 51 rlineto
          -24 -36 -39 -17 -48 hhcurveto
          -86 -69 72 106 -2 hvcurveto
          323 hlineto
          2 12 1 15 16 vvcurveto
          139 -68 89 -118 -73 -64 -49 -79 -36 vhcurveto
          84 -35 -69 44 -75 hhcurveto
          -116 -102 10 callsubr
          100 -93 116 hvcurveto
          214 287 rmoveto
          99 9 59 64 70 hhcurveto
          77 47 -57 -106 hvcurveto
          -262 hlineto
          -212 -226 rmoveto
          -83 -60 -8 callsubr
          60 79 83 85 59 -79 -115 -116 -59 -77 -85 hvcurveto
          endchar
        </CharString>
        <CharString name="ogonek">
          33 endchar
        </CharString>
        <CharString name="ograve">
          33 288 -49 callsubr
          -18 -585 -100 callsubr
        </CharString>
        <CharString name="omacron">
          33 140 0 callgsubr
          130 -614 -100 callsubr
        </CharString>
        <CharString name="one">
          -35 callsubr
        </CharString>
        <CharString name="one.heb">
          -35 callsubr
        </CharString>
        <CharString name="one.lat">
          -35 callsubr
        </CharString>
        <CharString name="one.pnumheb">
          -110 endchar
        </CharString>
        <CharString name="one.pnumlat">
          -144 168 hmoveto
          72 638 -56 hlineto
          -34 -20 -41 -15 -57 -10 rrcurveto
          -47 116 -546 vlineto
          endchar
        </CharString>
        <CharString name="one.sups">
          -141 endchar
        </CharString>
        <CharString name="one.supsheb">
          -93 endchar
        </CharString>
        <CharString name="one.supslat">
          -105 endchar
        </CharString>
        <CharString name="onehalf">
          296 168 -75 callsubr
        </CharString>
        <CharString name="onehalf.heb">
          33 endchar
        </CharString>
        <CharString name="onehalf.lat">
          296 169 31 callsubr
          -10 201 rmoveto
          58 390 -48 hlineto
          38 callsubr
          vlineto
          331 -189 rmoveto
          264 49 -171 hlineto
          87 89 64 62 76 vvcurveto
          83 -52 43 -76 -52 -47 -32 -43 -29 vhcurveto
          35 -32 rlineto
          32 22 30 26 34 hhcurveto
          47 31 -32 -53 -60 -63 -62 -124 -112 hvcurveto
          -34 vlineto
          endchar
        </CharString>
        <CharString name="onequarter">
          282 185 -75 callsubr
        </CharString>
        <CharString name="onequarter.heb">
          33 endchar
        </CharString>
        <CharString name="onequarter.lat">
          282 549 28 callgsubr
          -332 -480 rmoveto
          390 -48 vlineto
          38 callsubr
          58 vlineto
          537 -40 -11 callsubr
        </CharString>
        <CharString name="ordfeminine">
          -60 callsubr
        </CharString>
        <CharString name="ordmasculine">
          -23 callsubr
        </CharString>
        <CharString name="oslash">
          33 endchar
        </CharString>
        <CharString name="otilde">
          33 343 -87 callsubr
          -73 -590 -100 callsubr
        </CharString>
        <CharString name="p">
          41 callgsubr
          86 rlineto
          -36 46 46 -21 45 hhcurveto
          23 callsubr
          -66 98 -127 -57 -55 -33 -37 -45 hvcurveto
          -2 hlineto
          -7 58 rlineto
          -60 -693 hlineto
          1 callgsubr
        </CharString>
        <CharString name="paragraph">
          -7 callsubr
        </CharString>
        <CharString name="paragraph.lat">
          -7 callsubr
        </CharString>
        <CharString name="parenleft">
          -29 callsubr
        </CharString>
        <CharString name="parenleft.lat">
          -29 callsubr
        </CharString>
        <CharString name="parenright">
          -28 callgsubr
        </CharString>
        <CharString name="parenright.lat">
          -28 callgsubr
        </CharString>
        <CharString name="partialdiff">
          13 272 669 rmoveto
          -61 -53 -25 -41 -41 hvcurveto
          34 -46 rlineto
          32 32 40 19 42 hhcurveto
          87 57 -66 -176 -12 0 -12 -1 -12 hvcurveto
          45 -41 -56 28 -55 hhcurveto
          -136 -81 -92 -132 -119 85 -72 95 156 105 153 226 209 -83 93 -125 hvcurveto
          -46 -620 rmoveto
          -63 -54 53 82 90 48 70 104 46 49 -21 -56 46 hvcurveto
          -135 -21 -64 -83 -91 hhcurveto
          endchar
        </CharString>
        <CharString name="percent">
          310 199 -75 callsubr
        </CharString>
        <CharString name="percent.heb">
          33 endchar
        </CharString>
        <CharString name="percent.lat">
          313 200 31 callsubr
          -17 189 -14 callgsubr
          451 -235 -14 callgsubr
          endchar
        </CharString>
        <CharString name="period">
          41 callsubr
          -12 -69 callgsubr
        </CharString>
        <CharString name="periodcentered">
          41 callsubr
          264 -69 callgsubr
        </CharString>
        <CharString name="periodcentered.lat">
          41 callsubr
          264 rmoveto
          30 25 23 34 36 -43 callgsubr
          -36 -34 25 -23 30 hvcurveto
          endchar
        </CharString>
        <CharString name="perthousand">
          -54 callgsubr
        </CharString>
        <CharString name="perthousand.heb">
          33 endchar
        </CharString>
        <CharString name="perthousand.lat">
          679 498 669 rmoveto
          -52 hlineto
          -99 -186 rlineto
          70 -22 -48 38 -64 hhcurveto
          -89 -58 -75 -131 -119 46 -72 73 -14 hvcurveto
          -102 -192 rlineto
          51 hlineto
          102 191 rlineto
          76 12 48 73 121 vvcurveto
          8 0 9 -1 7 vhcurveto
          139 260 rlineto
          -376 -284 rmoveto
          106 37 54 54 51 35 -49 -96 4 vhcurveto
          -95 -177 rlineto
          -51 3 -35 56 103 vvcurveto
          509 17 rmoveto
          15 callgsubr
          14 callsubr
          hvcurveto
          363 hmoveto
          15 callgsubr
          14 callsubr
          hvcurveto
          -363 -368 rmoveto
          -25 callsubr
          363 hmoveto
          -25 callsubr
          endchar
        </CharString>
        <CharString name="pi">
          71 479 -12 rmoveto
          27 20 5 5 17 hvcurveto
          -10 56 rlineto
          -3 -19 -12 -2 -9 hhcurveto
          -30 -15 14 34 51 1 162 6 113 hvcurveto
          99 62 -462 hlineto
          -69 -5 rlineto
          -57 113 vlineto
          -134 -13 -151 -22 -138 vhcurveto
          74 -4 rlineto
          14 136 15 153 138 vvcurveto
          181 hlineto
          -1 -109 -4 -158 -53 vvcurveto
          -75 28 -40 71 vhcurveto
          endchar
        </CharString>
        <CharString name="plus">
          -15 216 105 rmoveto
          60 197 182 56 -182 197 -60 -197 -182 -56 182 -197 hlineto
          endchar
        </CharString>
        <CharString name="plusminus">
          -15 216 122 rmoveto
          60 183 182 56 -182 194 -60 -194 -182 -56 182 -183 hlineto
          -182 -122 45 callgsubr
          endchar
        </CharString>
        <CharString name="popdirectionformat">
          -19 765 rmoveto
          36 160 hlineto
          62 -64 25 26 -104 107 -104 -107 25 -26 60 63 rlineto
          -159 vlineto
          endchar
        </CharString>
        <CharString name="product">
          161 90 -120 rmoveto
          74 694 339 -694 75 758 -488 -758 hlineto
          endchar
        </CharString>
        <CharString name="q">
          45 395 -208 rmoveto
          73 693 -59 hlineto
          -7 -46 rlineto
          -2 hlineto
          37 -44 -39 21 -57 hhcurveto
          -112 -99 9 callsubr
          58 52 31 39 39 hvcurveto
          -3 -90 rlineto
          -176 vlineto
          -131 258 -68 callsubr
          endchar
        </CharString>
        <CharString name="question">
          -49 callgsubr
        </CharString>
        <CharString name="question.lat">
          -49 callgsubr
        </CharString>
        <CharString name="questiondown">
          -51 callsubr
        </CharString>
        <CharString name="questiondown.lat">
          -51 callsubr
        </CharString>
        <CharString name="quotedbl">
          -98 -9 callgsubr
          168 hmoveto
          -20 callsubr
          endchar
        </CharString>
        <CharString name="quotedbl.lat">
          -98 endchar
        </CharString>
        <CharString name="quotedblbase">
          -98 36 callgsubr
          -52 callgsubr
        </CharString>
        <CharString name="quotedblbase.lat">
          -98 endchar
        </CharString>
        <CharString name="quotedblleft">
          -98 180 663 rmoveto
          -39 callsubr
          -3 -3 0 -1 -2 vhcurveto
          57 25 33 48 34 vhcurveto
          103 -123 -47 callsubr
        </CharString>
        <CharString name="quotedblleft.lat">
          -98 endchar
        </CharString>
        <CharString name="quotedblright">
          -98 126 699 -52 callgsubr
        </CharString>
        <CharString name="quotedblright.lat">
          -98 endchar
        </CharString>
        <CharString name="quoteleft">
          -18 callgsubr
        </CharString>
        <CharString name="quoteleft.lat">
          -18 callgsubr
        </CharString>
        <CharString name="quoteright">
          -19 callsubr
        </CharString>
        <CharString name="quoteright.lat">
          -19 callsubr
        </CharString>
        <CharString name="quotesinglbase">
          -17 callgsubr
        </CharString>
        <CharString name="quotesinglbase.lat">
          -17 callgsubr
        </CharString>
        <CharString name="quotesingle">
          -265 -9 callgsubr
          endchar
        </CharString>
        <CharString name="quotesingle.lat">
          -265 -9 callgsubr
          endchar
        </CharString>
        <CharString name="r">
          -167 85 hmoveto
          73 316 hlineto
          84 33 50 31 42 hhcurveto
          19 10 -3 -5 17 hvcurveto
          14 64 rlineto
          7 -16 -14 3 -21 hhcurveto
          -55 -49 -40 -61 -34 hvcurveto
          -2 hlineto
          -7 89 rlineto
          -60 15 callsubr
        </CharString>
        <CharString name="radical">
          45 282 -98 rmoveto
          57 hlineto
          217 918 rlineto
          -54 hlineto
          -181 -774 -5 -21 -3 -20 -4 -20 26 callgsubr
          -5 20 -5 20 -6 21 -119 353 rcurveline
          -127 -56 18 -42 71 32 150 -431 rlineto
          endchar
        </CharString>
        <CharString name="registered">
          -67 callsubr
        </CharString>
        <CharString name="registered.lat">
          -67 callsubr
        </CharString>
        <CharString name="righttoleftembed">
          42 callgsubr
          75 36 -76 37 callsubr
          80 90 46 callsubr
        </CharString>
        <CharString name="ring">
          33 270 553 rmoveto
          -44 callsubr
          endchar
        </CharString>
        <CharString name="ringhalfleftmod">
          -342 endchar
        </CharString>
        <CharString name="ringhalfrightmod">
          -342 endchar
        </CharString>
        <CharString name="rsmall">
          -17 455 hmoveto
          -133 204 rlineto
          63 17 48 44 78 vvcurveto
          105 -77 37 -104 vhcurveto
          -167 -485 73 196 95 hlineto
          121 -196 rlineto
          81 hlineto
          -298 250 rmoveto
          177 82 vlineto
          75 45 -25 -60 -60 -45 -32 -75 hvcurveto
          -82 hlineto
          endchar
        </CharString>
        <CharString name="rsmallinverted">
          -17 332 485 rmoveto
          -194 -95 vlineto
          -121 194 rlineto
          -81 hlineto
          133 -202 rlineto
          -62 -17 -49 -45 -78 vvcurveto
          -105 77 -38 104 vhcurveto
          167 485 -73 hlineto
          -428 vmoveto
          -81 hlineto
          -76 -45 27 60 60 45 33 76 hvcurveto
          81 -180 hlineto
          endchar
        </CharString>
        <CharString name="s">
          -91 209 -12 -95 callgsubr
          endchar
        </CharString>
        <CharString name="sacute">
          -91 202 -68 callgsubr
          7 -585 -95 callgsubr
          endchar
        </CharString>
        <CharString name="scaron">
          -91 183 -81 callsubr
          26 -586 -95 callgsubr
          endchar
        </CharString>
        <CharString name="section">
          -15 endchar
        </CharString>
        <CharString name="section.lat">
          -15 endchar
        </CharString>
        <CharString name="semicolon">
          16 callgsubr
          3 -249 -7 callgsubr
        </CharString>
        <CharString name="seven">
          -46 callgsubr
        </CharString>
        <CharString name="seven.heb">
          -46 callgsubr
        </CharString>
        <CharString name="seven.lat">
          -46 callgsubr
        </CharString>
        <CharString name="seven.pnumheb">
          -16 endchar
        </CharString>
        <CharString name="seven.pnumlat">
          -20 170 hmoveto
          75 hlineto
          11 249 31 149 149 196 rrcurveto
          44 -392 -63 44 callgsubr
          -124 -176 -47 27 callsubr
        </CharString>
        <CharString name="six">
          -90 callsubr
        </CharString>
        <CharString name="six.heb">
          -90 callsubr
        </CharString>
        <CharString name="six.lat">
          -90 callsubr
        </CharString>
        <CharString name="six.pnumheb">
          -15 endchar
        </CharString>
        <CharString name="six.pnumlat">
          -15 endchar
        </CharString>
        <CharString name="slash">
          19 callgsubr
        </CharString>
        <CharString name="slash.lat">
          19 callgsubr
        </CharString>
        <CharString name="space">
          -307 endchar
        </CharString>
        <CharString name="sterling">
          -62 callgsubr
        </CharString>
        <CharString name="sterling.heb">
          33 endchar
        </CharString>
        <CharString name="sterling.lat">
          -62 callgsubr
        </CharString>
        <CharString name="summation">
          -7 21 -120 rmoveto
          477 63 -384 4 hlineto
          229 313 -219 311 rlineto
          4 345 63 -437 -48 vlineto
          232 -331 -243 -331 rlineto
          -48 vlineto
          endchar
        </CharString>
        <CharString name="t">
          -69 callsubr
          endchar
        </CharString>
        <CharString name="theta">
          11 259 -12 rmoveto
          123 75 114 258 237 -75 129 -123 -123 -75 -129 -237 -258 75 -114 123 hvcurveto
          61 vmoveto
          -73 -53 80 231 213 53 92 73 73 53 -92 -213 -231 -53 -80 -73 hvcurveto
          -158 286 rmoveto
          53 316 -53 -316 vlineto
          endchar
        </CharString>
        <CharString name="thorn">
          41 callgsubr
          84 rlineto
          -35 46 44 -20 47 hhcurveto
          23 callsubr
          -68 98 -128 -54 -53 -30 -35 -45 hvcurveto
          2 85 rlineto
          197 -73 -922 vlineto
          1 callgsubr
        </CharString>
        <CharString name="three">
          -98 callsubr
        </CharString>
        <CharString name="three.heb">
          -98 callsubr
        </CharString>
        <CharString name="three.lat">
          -98 callsubr
        </CharString>
        <CharString name="three.pnumheb">
          -15 endchar
        </CharString>
        <CharString name="three.pnumlat">
          -98 callsubr
        </CharString>
        <CharString name="three.sups">
          -141 endchar
        </CharString>
        <CharString name="three.supsheb">
          -93 endchar
        </CharString>
        <CharString name="three.supslat">
          -105 endchar
        </CharString>
        <CharString name="threequarters">
          296 220 -75 callsubr
        </CharString>
        <CharString name="threequarters.heb">
          33 endchar
        </CharString>
        <CharString name="threequarters.lat">
          296 584 28 callgsubr
          -268 -376 rmoveto
          53 -40 33 -45 11 vhcurveto
          41 18 29 32 47 vvcurveto
          65 -56 39 -67 -53 -40 -26 -38 -32 vhcurveto
          35 -31 rlineto
          28 23 29 21 30 hhcurveto
          45 28 -26 -39 -41 -40 -33 -70 hvcurveto
          -38 vlineto
          79 47 -25 -47 -46 -37 -27 -45 -41 -36 24 36 -24 hvcurveto
          -39 -30 rlineto
          -43 29 51 -33 63 hhcurveto
          75 61 44 72 hvcurveto
          452 -144 -11 callsubr
        </CharString>
        <CharString name="tilde">
          33 343 -87 callsubr
          endchar
        </CharString>
        <CharString name="tildecomb">
          73 -87 callsubr
          endchar
        </CharString>
        <CharString name="tildecomb.cap">
          76 -56 callgsubr
          endchar
        </CharString>
        <CharString name="trademark">
          -50 callsubr
        </CharString>
        <CharString name="trademark.lat">
          -50 callsubr
        </CharString>
        <CharString name="two">
          -76 callgsubr
        </CharString>
        <CharString name="two.heb">
          -76 callgsubr
        </CharString>
        <CharString name="two.lat">
          -76 callgsubr
        </CharString>
        <CharString name="two.pnumheb">
          -9 endchar
        </CharString>
        <CharString name="two.pnumlat">
          -10 44 hmoveto
          400 63 -186 hlineto
          -34 -39 -3 -2 -35 hvcurveto
          156 165 110 120 122 vvcurveto
          112 -70 73 -117 -80 -56 -36 -60 -55 vhcurveto
          43 -42 rlineto
          44 37 48 34 55 hhcurveto
          85 38 -54 -74 -106 -105 -116 -195 -197 hvcurveto
          -43 vlineto
          endchar
        </CharString>
        <CharString name="two.sups">
          -141 endchar
        </CharString>
        <CharString name="two.supsheb">
          -93 endchar
        </CharString>
        <CharString name="two.supslat">
          -105 endchar
        </CharString>
        <CharString name="u">
          33 226 -12 -94 callgsubr
        </CharString>
        <CharString name="uacute">
          33 256 -68 callgsubr
          -30 -585 -94 callgsubr
        </CharString>
        <CharString name="ucircumflex">
          33 155 -83 callgsubr
          71 -581 -94 callgsubr
        </CharString>
        <CharString name="udieresis">
          33 179 -98 callgsubr
          -141 -602 -94 callgsubr
        </CharString>
        <CharString name="ugrave">
          33 291 -49 callsubr
          -65 -585 -94 callgsubr
        </CharString>
        <CharString name="umacron">
          33 143 0 callgsubr
          83 -614 -94 callgsubr
        </CharString>
        <CharString name="underscore">
          -7 12 -124 rmoveto
          476 51 -476 -51 hlineto
          endchar
        </CharString>
        <CharString name="uni00A0">
          -305 endchar
        </CharString>
        <CharString name="uni00AD">
          -10 callsubr
        </CharString>
        <CharString name="uni018F">
          148 330 669 rmoveto
          -88 -70 -33 -43 -46 hvcurveto
          36 -51 rlineto
          38 40 57 27 66 hhcurveto
          130 70 -92 -169 4 hvcurveto
          -469 hlineto
          -7 -1 -7 -7 vvcurveto
          -204 99 -133 168 168 109 124 218 218 -103 121 -170 vhcurveto
          -4 -619 rmoveto
          -111 -76 89 151 -5 hvcurveto
          394 hlineto
          -155 -11 -75 -85 -116 hhcurveto
          endchar
        </CharString>
        <CharString name="uni0250">
          1 269 -12 rmoveto
          73 65 35 28 39 hvcurveto
          -29 51 rlineto
          -26 -35 -48 -28 -56 hhcurveto
          -102 -26 69 61 hvcurveto
          208 24 93 58 111 vvcurveto
          82 -56 44 -74 -65 -62 -33 -49 -48 vhcurveto
          -2 hlineto
          -7 70 rlineto
          -60 -293 hlineto
          -119 54 -85 138 vhcurveto
          -119 240 rmoveto
          130 vlineto
          56 53 49 23 47 hhcurveto
          44 37 -21 -54 -69 -58 -44 -172 -21 hvcurveto
          endchar
        </CharString>
        <CharString name="uni0254">
          -53 181 -12 rmoveto
          126 100 93 161 163 -102 92 -114 -74 -46 -27 -31 -36 hvcurveto
          38 -48 rlineto
          27 30 31 18 49 hhcurveto
          84 64 -78 -116 -116 -64 -77 -92 -46 -41 22 28 -31 hvcurveto
          -32 -49 rlineto
          -38 43 54 -24 59 hhcurveto
          endchar
        </CharString>
        <CharString name="uni0259">
          -15 235 -12 rmoveto
          118 92 97 158 161 -90 93 -122 -68 -54 -21 -29 -43 hvcurveto
          26 -52 rlineto
          26 38 40 17 51 hhcurveto
          91 54 -70 -101 4 hvcurveto
          -331 hlineto
          -3 -12 -1 -17 -16 vvcurveto
          -147 78 -87 120 vhcurveto
          -1 59 rmoveto
          -80 -52 55 112 hvcurveto
          271 hlineto
          -106 -9 -51 -61 -79 hhcurveto
          endchar
        </CharString>
        <CharString name="uni025B">
          -71 247 -12 rmoveto
          65 49 16 40 55 hvcurveto
          -32 49 rlineto
          -33 -45 -38 -13 -46 hhcurveto
          -78 -53 35 57 56 47 31 84 hvcurveto
          67 53 -53 hlineto
          -82 -37 33 47 53 45 26 57 43 34 -15 -24 37 hvcurveto
          30 49 rlineto
          30 -42 -46 19 -58 hhcurveto
          -92 -81 -43 -87 -46 30 -43 52 -19 hvcurveto
          -4 vlineto
          -55 -15 -53 -37 -70 vvcurveto
          -89 86 -56 110 vhcurveto
          endchar
        </CharString>
        <CharString name="uni026B">
          -10 callgsubr
        </CharString>
        <CharString name="uni0283">
          -265 31 34 callsubr
          634 vlineto
          60 14 38 57 40 callsubr
          -14 -21 6 -24 hhcurveto
          -98 -39 -59 -98 hvcurveto
          -634 vlineto
          -59 -11 -38 -50 -17 -17 4 4 -13 vhcurveto
          -15 -56 rlineto
          -6 17 24 -6 28 hhcurveto
          endchar
        </CharString>
        <CharString name="uni028E">
          -48 12 hmoveto
          72 hlineto
          90 277 14 43 14 50 14 44 26 callsubr
          16 -45 17 -50 16 -42 103 -277 rcurveline
          75 hlineto
          -195 488 22 67 rlineto
          63 21 36 47 56 hhcurveto
          13 15 -4 -3 10 hvcurveto
          14 58 rlineto
          6 -15 -18 4 -22 hhcurveto
          -94 -50 -74 -92 -32 hvcurveto
          -196 -560 rlineto
          endchar
        </CharString>
        <CharString name="uni0292">
          -88 198 -220 rmoveto
          105 98 78 140 119 -82 84 -133 -17 hvcurveto
          194 262 rlineto
          39 -336 -60 247 vlineto
          -198 -266 31 -43 rlineto
          11 23 12 6 29 hhcurveto
          90 49 -52 -86 -93 -61 -61 -74 -73 -44 30 33 -35 hvcurveto
          -37 -47 rlineto
          -38 41 57 -39 97 hhcurveto
          endchar
        </CharString>
        <CharString name="uni0294">
          -95 149 hmoveto
          72 291 hlineto
          99 65 72 65 115 vvcurveto
          125 -88 65 -112 -94 -59 -43 -44 -40 vhcurveto
          39 -48 rlineto
          38 34 45 36 71 hhcurveto
          83 47 -51 -79 -88 -53 -56 -116 -66 hvcurveto
          -325 vlineto
          endchar
        </CharString>
        <CharString name="uni0295">
          -74 200 hmoveto
          73 325 hlineto
          -117 66 -53 56 88 vvcurveto
          79 51 51 89 66 43 -36 -38 31 vhcurveto
          39 48 rlineto
          44 -38 -56 43 -89 hhcurveto
          -117 -93 -65 -125 -115 72 -65 99 -65 hvcurveto
          -291 vlineto
          endchar
        </CharString>
        <CharString name="uni02A4">
          371 endchar
        </CharString>
        <CharString name="uni02A6">
          -89 endchar
        </CharString>
        <CharString name="uni02A7">
          -89 361 34 callsubr
          634 vlineto
          60 13 38 58 40 callsubr
          -15 -20 6 -24 hhcurveto
          -99 -38 -59 -98 hvcurveto
          -634 vlineto
          -5 callsubr
          -129 208 -82 callgsubr
          endchar
        </CharString>
        <CharString name="uni02B9">
          -265 endchar
        </CharString>
        <CharString name="uni02C8">
          -397 29 532 rmoveto
          51 hlineto
          6 194 rlineto
          -63 hlineto
          6 -194 rlineto
          endchar
        </CharString>
        <CharString name="uni02D0">
          -265 82 244 rmoveto
          78 hlineto
          -3 128 rlineto
          -72 hlineto
          -3 -128 rlineto
          3 -157 rmoveto
          72 hlineto
          3 130 rlineto
          -78 hlineto
          3 -130 rlineto
          endchar
        </CharString>
        <CharString name="uni0302">
          -118 -83 callgsubr
          endchar
        </CharString>
        <CharString name="uni0302.cap">
          -113 -67 callgsubr
          endchar
        </CharString>
        <CharString name="uni0304">
          -130 0 callgsubr
          endchar
        </CharString>
        <CharString name="uni0304.cap">
          -132 -16 callgsubr
          endchar
        </CharString>
        <CharString name="uni0306">
          571 0 callsubr
        </CharString>
        <CharString name="uni0306.cap">
          707 vmoveto
          -61 callsubr
          endchar
        </CharString>
        <CharString name="uni0307">
          589 -6 callsubr
        </CharString>
        <CharString name="uni0307.cap">
          716 vmoveto
          29 callgsubr
          endchar
        </CharString>
        <CharString name="uni0308">
          -94 -98 callgsubr
          endchar
        </CharString>
        <CharString name="uni0308.cap">
          -102 -97 callsubr
          endchar
        </CharString>
        <CharString name="uni030A">
          553 vmoveto
          -44 callsubr
          endchar
        </CharString>
        <CharString name="uni030A.cap">
          699 vmoveto
          28 callsubr
          34 vmoveto
          46 callgsubr
          45 callsubr
          hvcurveto
          endchar
        </CharString>
        <CharString name="uni030B">
          -50 8 callgsubr
        </CharString>
        <CharString name="uni030B.cap">
          -58 704 rmoveto
          38 callgsubr
          155 hmoveto
          38 callgsubr
          endchar
        </CharString>
        <CharString name="uni030C">
          -36 -81 callsubr
          endchar
        </CharString>
        <CharString name="uni030C.cap">
          -38 -65 callgsubr
          endchar
        </CharString>
        <CharString name="uni031E">
          -23 -247 rmoveto
          46 105 71 44 -188 -44 71 -105 hlineto
          endchar
        </CharString>
        <CharString name="uni0327">
          -84 -13 callsubr
        </CharString>
        <CharString name="uni032E">
          -231 0 callsubr
        </CharString>
        <CharString name="uni0331">
          -130 -34 callgsubr
        </CharString>
        <CharString name="uni0361">
          -432 552 rmoveto
          78 127 158 35 147 hhcurveto
          148 157 -35 -78 127 hvcurveto
          22 38 rlineto
          82 -134 -150 45 -170 hhcurveto
          -170 -150 -45 -82 -134 hvcurveto
          22 -38 rlineto
          endchar
        </CharString>
        <CharString name="uni0394.math">
          73 endchar
        </CharString>
        <CharString name="uni03A9.math">
          167 endchar
        </CharString>
        <CharString name="uni03BC.math">
          50 endchar
        </CharString>
        <CharString name="uni05B0">
          64 -74 callgsubr
          -94 vmoveto
          -41 callsubr
          endchar
        </CharString>
        <CharString name="uni05B1">
          64 -74 callgsubr
          104 hmoveto
          -88 callsubr
          104 hmoveto
          -88 callsubr
          -157 -94 rmoveto
          -41 callsubr
          157 hmoveto
          -41 callsubr
          endchar
        </CharString>
        <CharString name="uni05B2">
          12 callgsubr
          159 16 callsubr
        </CharString>
        <CharString name="uni05B3">
          12 callgsubr
          67 hlineto
          -7 -100 rlineto
          39 hlineto
          -8 100 rlineto
          68 16 callsubr
        </CharString>
        <CharString name="uni05B4">
          64 -74 callgsubr
          endchar
        </CharString>
        <CharString name="uni05B5">
          64 -74 callgsubr
          107 hmoveto
          -88 callsubr
          endchar
        </CharString>
        <CharString name="uni05B6">
          64 -74 callgsubr
          107 hmoveto
          -88 callsubr
          -54 -85 -1 callgsubr
          endchar
        </CharString>
        <CharString name="uni05B7">
          193 -69 36 callsubr
          159 35 hlineto
          endchar
        </CharString>
        <CharString name="uni05B8">
          193 -69 36 callsubr
          67 hlineto
          -7 -100 rlineto
          39 hlineto
          -8 100 rlineto
          68 35 hlineto
          endchar
        </CharString>
        <CharString name="uni05B9">
          64 574 -1 callgsubr
          endchar
        </CharString>
        <CharString name="uni05BA">
          64 511 rmoveto
          18 12 16 49 callgsubr
          15 -18 25 callsubr
          30 callgsubr
          hvcurveto
          endchar
        </CharString>
        <CharString name="uni05BB">
          64 -74 callgsubr
          66 -60 rmoveto
          25 callsubr
          -17 -16 -89 callgsubr
          16 -38 callgsubr
          66 -61 rmoveto
          25 callsubr
          -17 -16 -89 callgsubr
          16 -38 callgsubr
          endchar
        </CharString>
        <CharString name="uni05BC">
          64 322 -99 callgsubr
        </CharString>
        <CharString name="uni05BE">
          -192 45 494 rmoveto
          225 61 -225 -61 hlineto
          endchar
        </CharString>
        <CharString name="uni05BF">
          221 571 rmoveto
          -189 -39 189 39 hlineto
          endchar
        </CharString>
        <CharString name="uni05C1">
          18 callgsubr
        </CharString>
        <CharString name="uni05C2">
          18 callgsubr
        </CharString>
        <CharString name="uni05C7">
          129 -69 rmoveto
          -95 -35 40 hlineto
          -12 -100 rlineto
          38 hlineto
          -12 100 rlineto
          41 35 hlineto
          endchar
        </CharString>
        <CharString name="uni05D0">
          -85 callsubr
          endchar
        </CharString>
        <CharString name="uni05D1">
          -4 callsubr
          endchar
        </CharString>
        <CharString name="uni05D2">
          -32 callsubr
          endchar
        </CharString>
        <CharString name="uni05D3">
          6 callgsubr
          endchar
        </CharString>
        <CharString name="uni05D4">
          -17 callsubr
          endchar
        </CharString>
        <CharString name="uni05D5">
          -283 77 hmoveto
          2 callsubr
          endchar
        </CharString>
        <CharString name="uni05D6">
          1 callsubr
          endchar
        </CharString>
        <CharString name="uni05D7">
          56 326 555 rmoveto
          -263 -555 77 494 169 hlineto
          72 36 -46 -90 hvcurveto
          -358 77 355 vlineto
          135 -62 65 -106 vhcurveto
          endchar
        </CharString>
        <CharString name="uni05D8">
          -39 callgsubr
          endchar
        </CharString>
        <CharString name="uni05D9">
          11 callsubr
          endchar
        </CharString>
        <CharString name="uni05DA">
          7 callgsubr
          endchar
        </CharString>
        <CharString name="uni05DB">
          -26 callsubr
          endchar
        </CharString>
        <CharString name="uni05DC">
          7 callsubr
          endchar
        </CharString>
        <CharString name="uni05DD">
          73 343 555 rmoveto
          -268 -555 436 9 callgsubr
          -191 -494 rmoveto
          433 174 vlineto
          5 callsubr
          -311 -282 vlineto
          endchar
        </CharString>
        <CharString name="uni05DE">
          -53 callsubr
          endchar
        </CharString>
        <CharString name="uni05DF">
          -283 77 -200 rmoveto
          77 638 hlineto
          -16 callsubr
          -638 vlineto
          endchar
        </CharString>
        <CharString name="uni05E0">
          -2 callsubr
          endchar
        </CharString>
        <CharString name="uni05E1">
          -42 callgsubr
          endchar
        </CharString>
        <CharString name="uni05E2">
          28 406 555 rmoveto
          -1 -287 -3 -119 -127 -59 -121 465 rcurveline
          -77 hlineto
          129 -488 -175 -35 10 -61 167 33 rlineto
          257 60 17 136 355 vvcurveto
          -76 hlineto
          endchar
        </CharString>
        <CharString name="uni05E3">
          -31 callgsubr
          endchar
        </CharString>
        <CharString name="uni05E4">
          -44 callgsubr
          endchar
        </CharString>
        <CharString name="uni05E5">
          -41 442 555 rmoveto
          -74 hlineto
          -135 -339 -112 339 rlineto
          -75 hlineto
          249 -755 rlineto
          76 hlineto
          -106 319 177 436 rlineto
          endchar
        </CharString>
        <CharString name="uni05E6">
          -11 callgsubr
          endchar
        </CharString>
        <CharString name="uni05E7">
          -32 callgsubr
          endchar
        </CharString>
        <CharString name="uni05E8">
          11 callgsubr
          endchar
        </CharString>
        <CharString name="uni05E9">
          -45 callsubr
          endchar
        </CharString>
        <CharString name="uni05EA">
          -26 callgsubr
          endchar
        </CharString>
        <CharString name="uni1E06">
          -57 callsubr
          4 -227 -61 callgsubr
        </CharString>
        <CharString name="uni1E07">
          -51 callgsubr
          -131 -218 -61 callgsubr
        </CharString>
        <CharString name="uni1E0C">
          -66 callsubr
          137 -264 -99 callsubr
        </CharString>
        <CharString name="uni1E0D">
          -84 callsubr
          30 -253 -99 callsubr
        </CharString>
        <CharString name="uni1E0E">
          -66 callsubr
          7 -229 -61 callgsubr
        </CharString>
        <CharString name="uni1E0F">
          -84 callsubr
          -100 -218 -61 callgsubr
        </CharString>
        <CharString name="uni1E20">
          107 219 -16 callgsubr
          126 -749 -93 callgsubr
        </CharString>
        <CharString name="uni1E21">
          -7 128 0 callgsubr
          119 -828 -104 callgsubr
        </CharString>
        <CharString name="uni1E24">
          -25 callgsubr
          231 -90 callgsubr
        </CharString>
        <CharString name="uni1E25">
          -77 callgsubr
          201 -90 callgsubr
        </CharString>
        <CharString name="uni1E2A">
          -25 callgsubr
          231 -231 rmoveto
          2 callgsubr
        </CharString>
        <CharString name="uni1E2B">
          -77 callgsubr
          201 -231 rmoveto
          2 callgsubr
        </CharString>
        <CharString name="uni1E32">
          -56 callsubr
          235 -90 callgsubr
        </CharString>
        <CharString name="uni1E33">
          -54 callsubr
          183 -90 callgsubr
        </CharString>
        <CharString name="uni1E34">
          -56 callsubr
          105 -34 callgsubr
        </CharString>
        <CharString name="uni1E35">
          -54 callsubr
          53 -34 callgsubr
        </CharString>
        <CharString name="uni1E62">
          23 271 -12 -97 callgsubr
          1 -191 -99 callsubr
        </CharString>
        <CharString name="uni1E63">
          -91 209 -12 -95 callgsubr
          11 -191 -99 callsubr
        </CharString>
        <CharString name="uni1E6C">
          -1 callsubr
          38 -90 callgsubr
        </CharString>
        <CharString name="uni1E6D">
          -69 callsubr
          -27 -191 -99 callsubr
        </CharString>
        <CharString name="uni1E6E">
          -1 callsubr
          -92 -34 callgsubr
        </CharString>
        <CharString name="uni1E6F">
          -69 callsubr
          -157 -156 -61 callgsubr
        </CharString>
        <CharString name="uni1E7E">
          -20 callgsubr
          42 -90 callgsubr
        </CharString>
        <CharString name="uni1E7F">
          -5 callgsubr
          42 -90 callgsubr
        </CharString>
        <CharString name="uni1E92">
          -31 callsubr
          236 -90 callgsubr
        </CharString>
        <CharString name="uni1E93">
          -30 callgsubr
          195 -90 callgsubr
        </CharString>
        <CharString name="uni1E94">
          -31 callsubr
          106 -34 callgsubr
        </CharString>
        <CharString name="uni1E95">
          -30 callgsubr
          65 -34 callgsubr
        </CharString>
        <CharString name="uni1E96">
          -77 callgsubr
          71 -34 callgsubr
        </CharString>
        <CharString name="uni1EA0">
          32 535 hmoveto
          -95 callsubr
          78 hlineto
          -370 -96 callsubr
          103 -369 21 callsubr
        </CharString>
        <CharString name="uni1EA1">
          -6 195 -12 -107 callgsubr
          33 -250 -99 callsubr
        </CharString>
        <CharString name="uni1EB8">
          17 92 hmoveto
          -83 callsubr
          198 -90 callgsubr
        </CharString>
        <CharString name="uni1EB9">
          -15 455 270 -106 callsubr
          138 -382 21 callsubr
        </CharString>
        <CharString name="uni1ECC">
          154 330 -12 -106 callgsubr
          -256 -6 callsubr
        </CharString>
        <CharString name="uni1ECD">
          33 270 -12 rmoveto
          -103 callsubr
          -1 -252 -99 callsubr
        </CharString>
        <CharString name="uni200E">
          33 callgsubr
          -191 -36 191 hlineto
          -63 -66 25 -25 rlineto
          endchar
        </CharString>
        <CharString name="uni200F">
          42 callgsubr
          192 36 -193 37 callsubr
          endchar
        </CharString>
        <CharString name="uni2010">
          -10 callsubr
        </CharString>
        <CharString name="uni2010.lat">
          -10 callsubr
        </CharString>
        <CharString name="uni202D">
          -31 767 rmoveto
          104 108 -104 109 -26 -27 61 -63 rlineto
          -160 -36 162 hlineto
          -63 -66 26 -25 rlineto
          97 hmoveto
          35 callgsubr
          82 -82 -82 -83 25 -25 rlineto
          endchar
        </CharString>
        <CharString name="uni202E">
          -66 805 rmoveto
          25 26 -80 83 80 81 -25 26 -105 -107 105 -109 rlineto
          97 hmoveto
          28 26 -63 64 rlineto
          161 34 -161 hlineto
          63 66 -28 26 -102 -107 102 -109 rlineto
          endchar
        </CharString>
        <CharString name="uni210A">
          49 259 -220 rmoveto
          133 77 73 118 hvcurveto
          514 -61 vlineto
          -7 -45 rlineto
          -2 hlineto
          36 -42 -40 21 -55 hhcurveto
          -112 -100 -96 -152 -154 79 -92 121 59 51 31 37 37 hvcurveto
          -1 -96 rlineto
          -83 -2 -44 -52 -91 hhcurveto
          -48 -50 13 32 -47 hvcurveto
          -28 -51 rlineto
          -34 50 61 -20 62 hhcurveto
          6 284 rmoveto
          -89 -51 73 112 108 65 78 83 41 39 -14 -39 44 hvcurveto
          -247 vlineto
          -47 -44 -41 -24 -47 hhcurveto
          endchar
        </CharString>
        <CharString name="uni2215">
          -54 callgsubr
        </CharString>
        <CharString name="uni2215.lat">
          -54 callgsubr
        </CharString>
        <CharString name="uni2219">
          -9 245 267 -69 callgsubr
        </CharString>
        <CharString name="uniFB2A">
          -63 callsubr
          endchar
        </CharString>
        <CharString name="uniFB2B">
          -63 callgsubr
          endchar
        </CharString>
        <CharString name="uniFB2C">
          -63 callsubr
          -203 -165 -30 callsubr
        </CharString>
        <CharString name="uniFB2D">
          -63 callgsubr
          -203 -165 -30 callsubr
        </CharString>
        <CharString name="uniFB2E">
          -38 callsubr
          159 35 hlineto
          endchar
        </CharString>
        <CharString name="uniFB2F">
          -38 callsubr
          67 hlineto
          -7 -100 rlineto
          39 hlineto
          -8 100 rlineto
          68 35 hlineto
          endchar
        </CharString>
        <CharString name="uniFB30">
          -85 callsubr
          -274 151 -99 callgsubr
        </CharString>
        <CharString name="uniFB31">
          -4 callsubr
          -203 236 rmoveto
          -3 callsubr
        </CharString>
        <CharString name="uniFB32">
          -32 callsubr
          -229 265 -30 callsubr
        </CharString>
        <CharString name="uniFB33">
          6 callgsubr
          -130 -74 callsubr
        </CharString>
        <CharString name="uniFB34">
          -17 callsubr
          214 -74 callsubr
        </CharString>
        <CharString name="uniFB35">
          -283 77 hmoveto
          2 callsubr
          -80 -74 callsubr
        </CharString>
        <CharString name="uniFB36">
          1 callsubr
          -79 -74 callsubr
        </CharString>
        <CharString name="uniFB38">
          -39 callgsubr
          170 345 -99 callgsubr
        </CharString>
        <CharString name="uniFB39">
          11 callsubr
          -73 211 -99 callgsubr
        </CharString>
        <CharString name="uniFB3A">
          7 callgsubr
          -172 529 -99 callgsubr
        </CharString>
        <CharString name="uniFB3B">
          -26 callsubr
          136 -74 callsubr
        </CharString>
        <CharString name="uniFB3C">
          7 callsubr
          18 -226 -99 callgsubr
        </CharString>
        <CharString name="uniFB3E">
          -53 callsubr
          -193 hmoveto
          -3 callsubr
        </CharString>
        <CharString name="uniFB40">
          -2 callsubr
          54 -74 callsubr
        </CharString>
        <CharString name="uniFB41">
          -42 callgsubr
          99 271 -99 callgsubr
        </CharString>
        <CharString name="uniFB43">
          -31 callgsubr
          10 -226 -99 callgsubr
        </CharString>
        <CharString name="uniFB44">
          -44 callgsubr
          211 326 -99 callgsubr
        </CharString>
        <CharString name="uniFB46">
          -11 callgsubr
          -144 -60 rmoveto
          -3 callsubr
        </CharString>
        <CharString name="uniFB47">
          -32 callgsubr
          216 535 -99 callgsubr
        </CharString>
        <CharString name="uniFB48">
          11 callgsubr
          -167 -74 callsubr
        </CharString>
        <CharString name="uniFB49">
          -45 callsubr
          -203 -165 -30 callsubr
        </CharString>
        <CharString name="uniFB4A">
          -26 callgsubr
          299 343 -99 callgsubr
        </CharString>
        <CharString name="uniFB4B">
          -283 91 682 -1 callgsubr
          -14 -682 rmoveto
          2 callsubr
          endchar
        </CharString>
        <CharString name="upsilonlatin">
          32 270 -12 rmoveto
          139 80 108 115 101 -46 71 -42 39 hvcurveto
          3 100 60 -181 -48 vlineto
          55 -45 40 -67 -99 vvcurveto
          -95 -50 -82 -95 -96 -50 82 95 99 40 67 56 45 vhcurveto
          48 -181 -60 100 -3 vlineto
          -43 -39 -46 -71 -101 vvcurveto
          -115 80 -108 140 vhcurveto
          endchar
        </CharString>
        <CharString name="v">
          -5 callgsubr
          endchar
        </CharString>
        <CharString name="w">
          203 161 hmoveto
          85 hlineto
          72 269 14 46 10 46 11 49 26 callsubr
          12 -49 9 -44 12 -46 74 -271 rcurveline
          90 hlineto
          132 485 rlineto
          -70 hlineto
          -74 -289 -32 -134 24 callgsubr
          -11 45 -11 43 -12 46 -79 289 rcurveline
          -73 hlineto
          -78 -289 -12 -45 -11 -44 -11 -45 26 callgsubr
          -9 45 -10 43 -10 46 -76 289 rcurveline
          -75 hlineto
          137 -485 rlineto
          endchar
        </CharString>
        <CharString name="x">
          -71 14 hmoveto
          76 hlineto
          70 118 17 29 16 30 18 28 26 callsubr
          18 -28 18 -30 17 -29 75 -118 rcurveline
          79 hlineto
          -159 246 147 239 40 callgsubr
          -63 -111 -15 -27 -15 -27 -15 -26 26 callgsubr
          -17 26 -16 27 -16 27 -68 111 rcurveline
          -79 hlineto
          148 -232 -160 -253 rlineto
          endchar
        </CharString>
        <CharString name="y">
          -48 86 -212 -80 callsubr
        </CharString>
        <CharString name="yacute">
          -48 224 -68 callgsubr
          -138 -785 -80 callsubr
        </CharString>
        <CharString name="ydieresis">
          -48 147 -98 callgsubr
          -249 -802 -80 callsubr
        </CharString>
        <CharString name="yen">
          -48 callsubr
        </CharString>
        <CharString name="yen.heb">
          33 endchar
        </CharString>
        <CharString name="yen.lat">
          -48 callsubr
        </CharString>
        <CharString name="z">
          -30 callgsubr
          endchar
        </CharString>
        <CharString name="zcaron">
          -88 193 -81 callsubr
          -163 -574 rmoveto
          -45 callgsubr
          endchar
        </CharString>
        <CharString name="zero">
          -73 callsubr
        </CharString>
        <CharString name="zero.heb">
          -73 callsubr
        </CharString>
        <CharString name="zero.lat">
          -73 callsubr
        </CharString>
        <CharString name="zero.pnumheb">
          8 endchar
        </CharString>
        <CharString name="zero.pnumlat">
          -4 endchar
        </CharString>
        <CharString name="zero.slash">
          -7 endchar
        </CharString>
        <CharString name="zero.slashpnum">
          -7 endchar
        </CharString>
      <CharString index="0">
        rmoveto
        61 55 32 39 47 hvcurveto
        2 hlineto
        7 -59 rlineto
        60 300 hlineto
        117 -47 80 -118 -78 -67 -36 -28 -42 vhcurveto
        29 -50 rlineto
        25 36 52 28 59 hhcurveto
        83 21 -65 -65 -1 hvcurveto
        -208 -58 callsubr
        19 59 rmoveto
        -49 -40 24 58 66 58 42 172 20 hvcurveto
        -142 vlineto
        -44 -50 -42 -24 -49 hhcurveto
        return
      </CharString>
      <CharString index="1">
        rmoveto
        -33 callsubr
        -77 callsubr
        -210 115 -133 163 hvcurveto
        1 65 rmoveto
        -122 -80 109 169 -64 callsubr
        -169 5 callgsubr
        hvcurveto
        return
      </CharString>
      <CharString index="2">
        -106 callgsubr
        endchar
      </CharString>
      <CharString index="3">
        rmoveto
        147 94 79 88 79 -55 36 -112 hvcurveto
        -96 hlineto
        -67 -20 23 32 28 14 17 19 15 hvcurveto
        -11 22 28 -6 24 hhcurveto
        98 77 66 103 43 -18 39 -25 23 hvcurveto
        103 57 -168 hlineto
        6 -17 -23 6 -27 hhcurveto
        -97 -82 -68 -105 -58 31 -47 31 -25 hvcurveto
        -4 vlineto
        -24 -17 -29 -32 -41 vvcurveto
        -38 19 -26 24 -15 vhcurveto
        -4 vlineto
        -44 -30 -27 -40 -42 vvcurveto
        -83 81 -48 119 vhcurveto
        -2 430 rmoveto
        -59 -50 47 73 74 49 45 60 60 48 -45 -74 -73 -50 -47 -58 hvcurveto
        12 -378 rmoveto
        -92 -54 35 54 30 16 31 37 26 hvcurveto
        -6 22 24 -2 16 hhcurveto
        89 hlineto
        66 35 -16 -47 -54 -63 -51 -96 hvcurveto
        endchar
      </CharString>
      <CharString index="4">
        rmoveto
        -105 callsubr
      </CharString>
      <CharString index="5">
        -86 callsubr
        -86 callgsubr
        hvcurveto
        return
      </CharString>
      <CharString index="6">
        -103 callsubr
        endchar
      </CharString>
      <CharString index="7">
        rmoveto
        -1 143 rlineto
        -77 hlineto
        2 -146 1 -226 -109 -112 -208 -13 rlinecurve
        -19 154 134 59 49 77 4 147 rlinecurve
        58 -74 -59 vlineto
        -3 -124 -30 -52 -87 -46 -34 283 rcurveline
        -74 hlineto
        70 -565 306 2 152 136 -2 284 rlinecurve
        return
      </CharString>
      <CharString index="8">
        rmoveto
        -93 callsubr
        -38 callgsubr
        endchar
      </CharString>
      <CharString index="9">
        590 rmoveto
        27 19 20 26 27 -19 20 -27 -27 -20 -20 -27 -26 20 -20 27 hvcurveto
        188 hmoveto
        27 20 20 26 27 -20 20 -27 -26 -20 -20 -27 -26 20 -20 26 hvcurveto
        return
      </CharString>
      <CharString index="10">
        rmoveto
        135 85 81 103 99 -61 44 -75 32 hvcurveto
        -95 42 rlineto
        -51 21 -59 26 66 vvcurveto
        62 51 40 77 62 49 -25 -38 40 vhcurveto
        40 47 rlineto
        47 -45 -68 34 -78 hhcurveto
        -117 -86 -72 -99 -97 73 -45 61 -26 hvcurveto
        95 -42 rlineto
        63 -28 49 -23 -70 vvcurveto
        -68 -54 -46 -90 -70 -67 33 51 -47 vhcurveto
        -45 -51 rlineto
        -60 56 79 -38 93 hhcurveto
        return
      </CharString>
      <CharString index="11">
        -29 -21 -19 -33 -30 24 -17 26 3 3 0 1 3 hvcurveto
        -57 -25 -33 -49 -34 vhcurveto
        22 -35 rlineto
        65 39 36 56 77 vvcurveto
        55 -22 30 -36 vhcurveto
        return
      </CharString>
      <CharString index="12">
        rmoveto
        112 61 65 77 93 -79 28 -71 26 hvcurveto
        -56 21 -53 19 48 vvcurveto
        39 29 35 65 44 35 -19 -24 33 vhcurveto
        35 47 rlineto
        30 -37 -52 24 -58 hhcurveto
        -104 -61 -60 -76 -82 78 -32 69 -25 hvcurveto
        54 -20 59 -24 -52 vvcurveto
        -44 -34 -37 -66 -61 -43 25 34 -42 vhcurveto
        -37 -49 rlineto
        -38 45 65 -29 70 hhcurveto
        return
      </CharString>
      <CharString index="13">
        rmoveto
        66 49 36 53 46 hvcurveto
        2 hlineto
        7 -77 rlineto
        60 485 -73 -348 hlineto
        -60 -48 -37 -26 -51 hhcurveto
        -68 -28 42 93 hvcurveto
        299 -73 -308 vlineto
        -124 46 -65 102 vhcurveto
        endchar
      </CharString>
      <CharString index="14">
        rmoveto
        88 71 32 44 41 hvcurveto
        272 -211 -62 143 -179 vlineto
        -26 -27 -48 -16 -50 hhcurveto
        -143 -80 108 169 169 87 105 137 67 43 -29 -35 34 hvcurveto
        41 49 rlineto
        39 -38 -59 41 -90 hhcurveto
        -174 -125 -130 -211 -212 121 -128 172 hvcurveto
        endchar
      </CharString>
      <CharString index="15">
        106 42 78 72 6 hvcurveto
        -47 7 rlineto
        -52 -7 -33 -55 -67 hhcurveto
        -67 -33 55 52 -8 hvcurveto
        -47 -7 rlineto
        -72 6 43 -78 106 hhcurveto
        return
      </CharString>
      <CharString index="16">
        rmoveto
        129 104 69 209 hvcurveto
        391 -71 -391 vlineto
        -162 -73 -51 -89 -87 -71 51 162 vhcurveto
        391 -74 -391 vlineto
        -209 103 -69 129 vhcurveto
        endchar
      </CharString>
      <CharString index="17">
        -203 -99 callsubr
      </CharString>
      <CharString index="18">
        13 -15 17 18 12 15 return
      </CharString>
      <CharString index="19">
        -96 callgsubr
        endchar
      </CharString>
      <CharString index="20">
        -16 -17 -89 callgsubr
        17 return
      </CharString>
      <CharString index="21">
        -29 -21 -20 -29 -31 21 -20 29 return
      </CharString>
      <CharString index="22">
        332 399 -153 rmoveto
        69 63 17 35 58 hvcurveto
        -21 44 rlineto
        -27 -46 -55 -19 -62 hhcurveto
        -173 -126 114 195 234 172 153 180 179 98 -117 -164 -133 -73 -77 -63 -57 -20 39 82 21 hvcurveto
        38 197 rlineto
        -49 hlineto
        -11 -40 rlineto
        -2 hlineto
        33 -19 -27 15 -35 hhcurveto
        -117 -73 -126 -104 -91 52 -49 67 44 44 30 39 33 hvcurveto
        2 hlineto
        -51 7 41 -25 54 hhcurveto
        89 107 90 174 196 -125 132 -200 -220 -192 -174 -266 -230 153 -126 195 hvcurveto
        -19 262 rmoveto
        -42 -31 26 67 78 50 96 82 27 19 -11 -32 20 hvcurveto
        -29 -163 rlineto
        -42 -36 -31 -19 -29 hhcurveto
        endchar
      </CharString>
      <CharString index="23">
        -16 -16 -89 callgsubr
        49 callgsubr
        return
      </CharString>
      <CharString index="24">
        569 rmoveto
        116 116 rlineto
        -73 callgsubr
        rlineto
        return
      </CharString>
      <CharString index="25">
        rmoveto
        27 32 9 9 28 hvcurveto
        -15 55 rlineto
        -6 -16 -23 -7 -18 hhcurveto
        -58 -18 36 60 hvcurveto
        281 133 60 -133 137 -61 vlineto
        -9 -137 -76 -5 rlineto
        -55 73 -279 vlineto
        -94 33 -64 101 vhcurveto
        return
      </CharString>
      <CharString index="26">
        -15 233 -12 rmoveto
        108 104 78 138 138 -89 62 -108 -42 -30 -11 -17 -30 hvcurveto
        17 199 rlineto
        249 63 -313 hlineto
        -21 -305 40 -25 rlineto
        25 38 29 14 45 hhcurveto
        85 56 -54 -92 -92 -65 -60 -80 -78 -48 36 38 -38 hvcurveto
        -37 -48 rlineto
        -43 44 61 -44 103 hhcurveto
        endchar
      </CharString>
      <CharString index="27">
        93 586 49 rmoveto
        -38 11 -42 22 -44 32 51 69 38 82 26 87 rrcurveto
        -68 hlineto
        -21 -78 -32 -67 -43 -55 -63 53 -63 70 -44 71 rrcurveto
        74 54 75 56 86 vvcurveto
        74 -46 53 -78 -88 -60 -67 -87 -48 16 -53 28 -54 vhcurveto
        -68 -48 -63 -55 -88 vvcurveto
        -106 82 -75 115 77 60 31 46 51 vhcurveto
        51 -38 51 -26 45 -13 21 61 rcurveline
        -402 468 rmoveto
        56 32 43 51 47 18 -37 -39 -61 -54 -41 -62 -42 vhcurveto
        -20 42 -12 41 38 vvcurveto
        -80 -344 rmoveto
        55 39 41 50 40 vhcurveto
        46 -75 64 -72 67 -58 rrcurveto
        -34 -40 -45 -23 -47 hhcurveto
        -74 -60 50 76 hvcurveto
        endchar
      </CharString>
      <CharString index="28">
        rmoveto
        -91 callsubr
        return
      </CharString>
      <CharString index="29">
        237 372 -11 rmoveto
        174 148 130 204 202 -148 128 -174 -174 -148 -127 -203 -204 148 -130 174 hvcurveto
        -1 39 rmoveto
        -151 -127 118 177 176 127 116 151 152 127 -116 -176 -177 -127 -118 -152 hvcurveto
        8 97 rmoveto
        61 38 25 32 36 hvcurveto
        -27 39 rlineto
        -26 -30 -32 -19 -44 hhcurveto
        -73 -49 56 91 81 51 57 75 36 25 -15 -27 28 hvcurveto
        32 36 rlineto
        32 -32 -36 24 -56 hhcurveto
        -96 -87 -72 -116 -125 81 -73 99 hvcurveto
        endchar
      </CharString>
      <CharString index="30">
        33 85 hmoveto
        -76 callsubr
        -49 -37 -46 -47 vhcurveto
        3 102 rlineto
        198 -73 -714 vlineto
        return
      </CharString>
      <CharString index="31">
        -15 40 hmoveto
        407 63 -193 hlineto
        -34 -39 -3 -2 -35 hvcurveto
        158 165 111 120 122 vvcurveto
        112 -72 73 -116 -82 -57 -39 -57 -52 vhcurveto
        43 -42 rlineto
        44 37 47 34 55 hhcurveto
        85 41 -54 -74 -106 -108 -116 -196 -197 hvcurveto
        -43 vlineto
        endchar
      </CharString>
      <CharString index="32">
        rmoveto
        86 63 35 60 51 hvcurveto
        -41 46 rlineto
        -48 -43 -48 -28 -64 hhcurveto
        -129 -81 108 169 169 84 105 129 57 44 -26 -38 35 hvcurveto
        41 49 rlineto
        41 -38 -61 39 -79 hhcurveto
        -167 -122 -130 -211 -212 120 -128 163 hvcurveto
        endchar
      </CharString>
      <CharString index="33">
        -75 rmoveto
        -88 callsubr
        return
      </CharString>
      <CharString index="34">
        4 hlineto
        117 -116 32 29 -114 141 rlineto
        -73 hlineto
        -114 -141 32 -29 return
      </CharString>
      <CharString index="35">
        rmoveto
        -78 callsubr
      </CharString>
      <CharString index="36">
        136 157 rlineto
        56 vlineto
        -136 157 -33 -28 119 -157 -119 -158 33 -27 rlineto
        return
      </CharString>
      <CharString index="37">
        rmoveto
        260 52 -260 -52 hlineto
        return
      </CharString>
      <CharString index="38">
        rmoveto
        24 callsubr
      </CharString>
      <CharString index="39">
        573 rmoveto
        153 153 -27 callgsubr
        rlineto
        return
      </CharString>
      <CharString index="40">
        701 rmoveto
        111 94 rlineto
        -58 callgsubr
        rlineto
        return
      </CharString>
      <CharString index="41">
        58 37 47 73 3 hvcurveto
        -50 4 rlineto
        -44 -5 -18 -25 -27 -49 -25 73 -75 hhcurveto
        -59 -36 -47 -73 -4 hvcurveto
        50 -3 rlineto
        43 4 20 25 26 return
      </CharString>
      <CharString index="42">
        707 rmoveto
        76 hlineto
        106 113 -32 24 -110 -94 24 callgsubr
        -111 94 -32 -24 107 -113 rlineto
        return
      </CharString>
      <CharString index="43">
        -15 383 609 rmoveto
        26 17 -9 -6 15 hvcurveto
        16 57 rlineto
        9 -19 -27 9 -31 hhcurveto
        -103 -45 -73 -131 -14 hvcurveto
        -6 -57 rlineto
        -27 hlineto
        -69 -5 rlineto
        -52 89 vlineto
        -25 -230 -10 -100 -24 -58 -65 -1 rlinecurve
        -18 1 -17 3 -15 7 -15 -55 rcurveline
        -9 17 24 -6 30 hhcurveto
        108 40 81 123 13 hvcurveto
        27 244 rlineto
        135 57 -128 hlineto
        7 63 rlineto
        72 8 24 66 62 hhcurveto
        endchar
      </CharString>
      <CharString index="44">
        128 81 -34 callsubr
        494 -92 callsubr
        return
      </CharString>
      <CharString index="45">
        -15 161 63 rmoveto
        4 vlineto
        42 42 23 45 73 vvcurveto
        21 -2 20 -4 19 vhcurveto
        149 51 -160 hlineto
        -12 44 -14 42 44 vvcurveto
        71 40 50 74 47 32 -23 -32 26 vhcurveto
        43 42 rlineto
        42 -34 -48 32 -70 hhcurveto
        -110 -72 -69 -111 -44 15 -44 13 -44 hvcurveto
        -19 hlineto
        -67 -3 rlineto
        -48 100 vlineto
        4 -19 3 -20 -20 vvcurveto
        -76 -36 -70 -70 -38 vhcurveto
        -44 392 63 -285 vlineto
        endchar
      </CharString>
      <CharString index="46">
        -70 callgsubr
        endchar
      </CharString>
      <CharString index="47">
        37 callgsubr
        147 115 -19 callgsubr
        rlineto
        return
      </CharString>
      <CharString index="48">
        -210 28 -152 rmoveto
        42 hlineto
        78 37 29 103 hvcurveto
        73 -8 55 68 vvcurveto
        39 17 39 69 1 vhcurveto
        46 vlineto
        -69 1 -17 39 38 69 8 55 73 vvcurveto
        103 -37 29 -78 vhcurveto
        -42 -42 27 hlineto
        56 15 -29 -66 hvcurveto
        -61 -6 -53 -70 vvcurveto
        -63 15 -32 43 -12 vhcurveto
        -4 vlineto
        -43 -12 -15 -34 -61 -70 6 -53 -61 vvcurveto
        -66 -15 -29 -56 vhcurveto
        -27 -42 hlineto
        endchar
      </CharString>
      <CharString index="49">
        4 hlineto
        110 -94 32 24 -106 113 40 callgsubr
        -107 -113 32 -24 return
      </CharString>
      <CharString index="50">
        -15 433 162 rmoveto
        218 -282 -45 153 vvcurveto
        60 41 41 64 56 30 -21 -37 37 vhcurveto
        40 44 -36 38 -41 30 -64 6 rlinecurve
        99 -55 -100 vlineto
        -85 -12 -59 -63 -89 -196 282 40 -171 vvcurveto
        -65 -39 -43 -77 -63 -52 31 36 -41 vhcurveto
        -35 -50 41 -39 63 -32 65 -6 rlinecurve
        -99 55 100 vlineto
        94 12 61 65 95 vvcurveto
        endchar
      </CharString>
      <CharString index="51">
        711 rmoveto
        -66 callgsubr
        49 25 -73 76 hhcurveto
        return
      </CharString>
      <CharString index="52">
        -33 49 rlineto
        -28 -31 -40 -22 -47 hhcurveto
        -93 -63 -8 callsubr
        68 79 90 41 31 -19 -26 29 hvcurveto
        38 48 rlineto
        31 -34 -44 27 -64 hhcurveto
        -122 -108 -94 -161 return
      </CharString>
      <CharString index="53">
        -422 -167 -75 callsubr
      </CharString>
      <CharString index="54">
        87 67 rmoveto
        -71 callgsubr
        return
      </CharString>
      <CharString index="55">
        -4 callgsubr
        168 hmoveto
        -88 callgsubr
      </CharString>
      <CharString index="56">
        44 293 -12 rmoveto
        23 callsubr
        -67 98 -126 -55 -56 -31 -39 -45 hvcurveto
        3 89 rlineto
        198 -73 -714 58 vlineto
        7 50 rlineto
        3 hlineto
        -39 44 51 -23 45 hhcurveto
        -12 62 rmoveto
        -33 -46 14 39 -45 hvcurveto
        262 vlineto
        46 49 45 -8 callgsubr
        return
      </CharString>
      <CharString index="57">
        22 callsubr
        158 44 callsubr
        -5 5 184 -5 184 140 -5 -43 callsubr
        5 -4 -184 4 -184 -140 5 30 callsubr
        4 -4 -158 rlineto
        endchar
      </CharString>
      <CharString index="58">
        -88 161 194 rmoveto
        64 hlineto
        -17 143 163 55 132 vvcurveto
        95 -64 63 -100 -72 -56 -35 -46 -41 vhcurveto
        42 -39 rlineto
        37 32 41 22 46 hhcurveto
        67 33 -46 -56 -110 -160 -57 22 -158 hvcurveto
        34 -206 -69 callgsubr
      </CharString>
      <CharString index="59">
        -12 rmoveto
        -40 callsubr
        return
      </CharString>
      <CharString index="60">
        -172 185 389 rmoveto
        45 37 17 19 29 hvcurveto
        -22 36 rlineto
        -15 -22 -29 -11 -32 hhcurveto
        -63 -41 42 68 -3 hvcurveto
        220 hlineto
        3 16 1 6 13 vvcurveto
        60 -30 86 -101 -80 -68 -65 -103 -108 69 -61 87 vhcurveto
        -101 194 rmoveto
        62 7 36 36 51 hhcurveto
        60 20 -51 -47 hvcurveto
        -174 hlineto
        endchar
      </CharString>
      <CharString index="61">
        -15 180 hmoveto
        75 hlineto
        11 249 33 149 151 196 rrcurveto
        44 -406 -63 322 vlineto
        -126 -176 -49 27 callsubr
      </CharString>
      <CharString index="62">
        364 60 -272 hlineto
        263 386 rlineto
        39 -326 -60 234 vlineto
        -263 -386 rlineto
        -39 vlineto
        return
      </CharString>
      <CharString index="63">
        34 76 hmoveto
        177 hlineto
        129 106 67 184 hvcurveto
        56 vlineto
        162 -76 86 -128 vhcurveto
        -176 hlineto
        -38 -167 -21 -109 30 -67 118 -12 rlinecurve
        16 53 -76 15 -14 38 17 77 rlinecurve
        26 111 rlineto
        104 hlineto
        95 46 -65 -120 hvcurveto
        -61 vlineto
        -142 -76 -45 -95 vhcurveto
        -164 -61 hlineto
        return
      </CharString>
      <CharString index="64">
        -25 24 -30 -30 -25 -24 return
      </CharString>
      <CharString index="65">
        58 513 321 rmoveto
        -1 31 rlineto
        122 -4 -66 81 -120 hhcurveto
        -273 hlineto
        7 -61 61 -504 222 10 182 77 -8 244 rlinecurve
        -328 -260 rmoveto
        -52 433 rlineto
        182 hlineto
        80 41 -64 -83 hvcurveto
        -24 vlineto
        8 -196 -122 -53 -137 -13 rrcurveto
        return
      </CharString>
      <CharString index="66">
        571 rmoveto
        -92 callgsubr
        return
      </CharString>
      <CharString index="67">
        -163 -115 -128 -210 return
      </CharString>
      <CharString index="68">
        46 116 -10 rmoveto
        226 11 177 94 -9 244 -1 28 rcurveline
        -4 126 -75 59 -113 8 -56 4 rcurveline
        -5 -62 49 -3 rlineto
        89 -6 40 -56 -80 vvcurveto
        -25 vlineto
        7 -188 -119 -69 -138 -14 -58 494 rcurveline
        -77 hlineto
        67 -565 rlineto
        return
      </CharString>
      <CharString index="69">
        -29 callgsubr
        hvcurveto
        return
      </CharString>
      <CharString index="70">
        -85 -55 callsubr
        154 hmoveto
        13 callsubr
      </CharString>
      <CharString index="71">
        -26 48 rlineto
        -24 -36 -39 -15 -48 hhcurveto
        return
      </CharString>
      <CharString index="72">
        rmoveto
        59 55 24 38 43 hvcurveto
        -55 callgsubr
        -161 97 -93 128 hvcurveto
        endchar
      </CharString>
      <CharString index="73">
        -168 -61 callgsubr
      </CharString>
      <CharString index="74">
        52 51 36 26 52 hhcurveto
        67 29 -41 -93 hvcurveto
        return
      </CharString>
      <CharString index="75">
        42 228 hmoveto
        143 5 98 95 10 199 17 201 rcurveline
        3 55 rlineto
        -443 -61 360 hlineto
        -17 -210 -12 -178 -76 -34 -91 -11 rlinecurve
        8 -61 rlineto
        -170 -200 rmoveto
        77 552 -66 hlineto
        -11 -68 rlineto
        -484 vlineto
        return
      </CharString>
      <CharString index="76">
        40 278 555 rmoveto
        -179 hlineto
        -32 -150 -17 -112 20 -57 99 -16 rlinecurve
        19 50 -55 14 -10 41 15 77 rlinecurve
        18 92 rlineto
        106 hlineto
        96 43 -65 -120 hvcurveto
        -509 77 507 vlineto
        162 -1 -71 86 -128 hhcurveto
        return
      </CharString>
      <CharString index="77">
        -88 30 hmoveto
        -45 callgsubr
        return
      </CharString>
      <CharString index="78">
        17 -12 15 -18 return
      </CharString>
      <CharString index="79">
        -210 82 -176 rmoveto
        83 134 49 144 176 vvcurveto
        176 -49 144 -83 134 vhcurveto
        -45 -22 rlineto
        78 -127 38 -152 -153 vvcurveto
        -153 -38 -152 -78 -127 vhcurveto
        45 -22 rlineto
        endchar
      </CharString>
      <CharString index="80">
        -51 48 -140 -164 38 -37 return
      </CharString>
      <CharString index="81">
        98 30 -14 rmoveto
        121 11 51 54 118 vvcurveto
        325 152 vlineto
        5 callsubr
        -372 77 369 vlineto
        -15 callsubr
        -245 -394 hlineto
        -74 -23 -39 -81 -7 vhcurveto
        8 -55 rlineto
        return
      </CharString>
      <CharString index="82">
        141 92 hmoveto
        22 callgsubr
        657 -74 -278 -317 278 48 callsubr
        return
      </CharString>
      <CharString index="83">
        -97 callsubr
        -139 -718 rmoveto
        74 return
      </CharString>
      <CharString index="84">
        96 569 rmoveto
        -12 callsubr
        17 20 -4 -8 18 vhcurveto
        14 callgsubr
        return
      </CharString>
      <CharString index="85">
        -181 164 434 rmoveto
        65 57 48 76 78 -57 49 -65 -65 -58 -49 -78 -76 58 -48 65 hvcurveto
        42 vmoveto
        -45 -32 35 47 49 32 35 45 45 31 -35 -49 -47 -31 -35 -45 hvcurveto
        endchar
      </CharString>
      <CharString index="86">
        rmoveto
        -21 callsubr
      </CharString>
      <CharString index="87">
        2 213 hmoveto
        84 hlineto
        211 657 40 callgsubr
        -109 -362 -23 -78 -17 -63 -25 -77 26 callgsubr
        -25 77 -16 63 -24 78 -110 362 rcurveline
        -78 hlineto
        212 -657 rlineto
        return
      </CharString>
      <CharString index="88">
        -43 49 -137 -127 33 -37 return
      </CharString>
      <CharString index="89">
        -265 115 540 -47 callsubr
      </CharString>
      <CharString index="90">
        -265 36 callgsubr
        rmoveto
        -88 callgsubr
      </CharString>
      <CharString index="91">
        737 rmoveto
        263 52 -263 -52 hlineto
        return
      </CharString>
      <CharString index="92">
        -137 127 -42 -49 147 -115 return
      </CharString>
      <CharString index="93">
        rmoveto
        14 callsubr
        15 callgsubr
        hvcurveto
        46 vmoveto
        -25 callsubr
        return
      </CharString>
      <CharString index="94">
        -95 137 431 rmoveto
        70 85 68 -85 37 26 -56 93 95 39 -14 42 -100 -25 -9 106 rlineto
        -44 hlineto
        -9 -107 -100 26 -14 -42 95 -39 -56 -93 37 -26 rlineto
        endchar
      </CharString>
      <CharString index="95">
        -2 -9 -4 0 -5 hhcurveto
        -12 -10 10 24 hvcurveto
        631 -73 -625 vlineto
        -66 24 -35 56 return
      </CharString>
      <CharString index="96">
        10 322 246 rmoveto
        139 309 rlineto
        -78 hlineto
        -102 -239 -143 239 rlineto
        -79 hlineto
        295 -494 rlineto
        -315 -61 430 hlineto
        -147 246 rlineto
        return
      </CharString>
      <CharString index="97">
        -257 165 -12 rmoveto
        39 callgsubr
        hvcurveto
        -10 56 rlineto
        -12 callgsubr
        vhcurveto
        endchar
      </CharString>
      <CharString index="98">
        97 443 rmoveto
        -20 callsubr
        return
      </CharString>
      <CharString index="99">
        24 43 hhcurveto
        96 38 -76 -110 -123 -62 -76 -85 hvcurveto
        return
      </CharString>
      <CharString index="100">
        rmoveto
        -30 -26 -20 -33 -35 26 -19 29 4 3 0 1 4 hvcurveto
        -1 -55 -33 -42 -53 -24 19 -44 rcurveline
        75 33 48 65 83 vvcurveto
        56 -24 34 -41 vhcurveto
        endchar
      </CharString>
      <CharString index="101">
        -15 61 285 rmoveto
        64 hlineto
        119 316 35 callsubr
        49 -133 69 -183 rlineto
        65 hlineto
        -152 385 rlineto
        -66 hlineto
        -152 -385 rlineto
        endchar
      </CharString>
      <CharString index="102">
        -48 189 hmoveto
        84 hlineto
        174 485 rlineto
        -72 hlineto
        -96 -283 -46 -142 24 callgsubr
        -46 142 -96 283 rlineto
        -75 hlineto
        177 -485 rlineto
        return
      </CharString>
      <CharString index="103">
        rmoveto
        -96 callgsubr
        return
      </CharString>
      <CharString index="104">
        -102 callgsubr
        endchar
      </CharString>
      <CharString index="105">
        160 77 -98 -167 -168 -77 -102 -160 hvcurveto
        return
      </CharString>
      <CharString index="106">
        rmoveto
        25 callsubr
        -87 callgsubr
        47 callgsubr
        return
      </CharString>
      <CharString index="107">
        602 -70 callgsubr
        return
      </CharString>
      <CharString index="108">
        196 258 rmoveto
        -33 -44 14 39 -47 hvcurveto
        262 vlineto
        46 50 44 32 callgsubr
      </CharString>
      <CharString index="109">
        -92 callgsubr
        endchar
      </CharString>
      <CharString index="110">
        -29 callgsubr
        23 callgsubr
        return
      </CharString>
      <CharString index="111">
        -17 -13 -16 30 callgsubr
        return
      </CharString>
      <CharString index="112">
        -80 -109 -121 return
      </CharString>
      <CharString index="113">
        30 305 10 callgsubr
        75 61 -428 -61 279 hlineto
        -18 -27 -10 -40 -50 vvcurveto
        -377 vlineto
        return
      </CharString>
      <CharString index="114">
        -4 356 -200 rmoveto
        77 569 hlineto
        -15 callsubr
        -211 -61 194 hlineto
        5 callsubr
        -572 vlineto
        return
      </CharString>
      <CharString index="115">
        568 rmoveto
        98 164 -53 27 -86 -172 41 -19 rlineto
        146 hmoveto
        98 164 -52 27 -87 -172 41 -19 rlineto
        endchar
      </CharString>
      <CharString index="116">
        369 hlineto
        -15 callsubr
        return
      </CharString>
      <CharString index="117">
        hmoveto
        77 377 hlineto
        36 5 47 20 34 vhcurveto
        return
      </CharString>
      <CharString index="118">
        -34 326 hmoveto
        77 9 callgsubr
        -194 -61 177 hlineto
        5 callsubr
        -372 vlineto
        return
      </CharString>
      <CharString index="119">
        261 -74 callgsubr
        -68 -10 36 callsubr
        return
      </CharString>
      <CharString index="120">
        -71 callgsubr
        endchar
      </CharString>
      <CharString index="121">
        16 56 rlineto
        9 -22 -28 7 -28 hhcurveto
        -92 -44 -59 -98 hvcurveto
        return
      </CharString>
      <CharString index="122">
        -89 -58 -75 -131 -133 58 -75 89 return
      </CharString>
      <CharString index="123">
        41 callsubr
        354 -79 callgsubr
        return
      </CharString>
      <CharString index="124">
        -155 289 -160 rmoveto
        54 hlineto
        -277 870 rlineto
        -54 hlineto
        277 -870 rlineto
        endchar
      </CharString>
      <CharString index="125">
        64 586 rmoveto
        4 callgsubr
        3 callsubr
        hvcurveto
        endchar
      </CharString>
      <CharString index="126">
        -155 10 -160 rmoveto
        54 hlineto
        277 870 rlineto
        -54 hlineto
        -277 -870 rlineto
        endchar
      </CharString>
      <CharString index="127">
        74 657 20 callsubr
      </CharString>
      <CharString index="128">
        589 -101 callsubr
        return
      </CharString>
      <CharString index="129">
        74 314 317 -314 74 return
      </CharString>
      <CharString index="130">
        -17 -13 -16 39 callsubr
        return
      </CharString>
      <CharString index="131">
        rlineto
        -4 hlineto
        return
      </CharString>
      <CharString index="132">
        -2 hlineto
        -7 72 rlineto
        -60 15 callsubr
      </CharString>
      <CharString index="133">
        rlinecurve
        -4 hlineto
        return
      </CharString>
      <CharString index="134">
        rmoveto
        28 22 21 30 29 -22 21 -28 -28 -22 -21 -29 -30 22 -21 28 hvcurveto
        return
      </CharString>
      <CharString index="135">
        669 rmoveto
        -363 -681 rlineto
        43 callsubr
        return
      </CharString>
      <CharString index="136">
        30 23 20 31 29 -23 20 -30 -29 -23 -20 -29 -31 23 -20 29 hvcurveto
        return
      </CharString>
      <CharString index="137">
        -16 -16 13 -16 17 return
      </CharString>
      <CharString index="138">
        rlineto
        63 vlineto
        -140 return
      </CharString>
      <CharString index="139">
        -8 callgsubr
        endchar
      </CharString>
      <CharString index="140">
        39 767 rmoveto
        35 callgsubr
        63 -63 rlineto
        return
      </CharString>
      <CharString index="141">
        -27 41 225 rmoveto
        398 52 -398 -52 hlineto
        endchar
      </CharString>
      <CharString index="142">
        105 108 -105 109 -25 -27 return
      </CharString>
      <CharString index="143">
        126 115 return
      </CharString>
      <CharString index="144">
        699 rmoveto
        return
      </CharString>
      <CharString index="145">
        103 141 -51 29 -91 -151 39 -19 rlineto
        return
      </CharString>
      <CharString index="146">
        20 12 3 4 11 return
      </CharString>
      <CharString index="147">
        rlineto
        -76 hlineto
        return
      </CharString>
      <CharString index="148">
        45 85 -208 rmoveto
        73 167 hlineto
        -2 return
      </CharString>
      <CharString index="149">
        -39 768 rmoveto
        25 24 -62 66 rlineto
        return
      </CharString>
      <CharString index="150">
        hlineto
        144 96 64 136 142 return
      </CharString>
      <CharString index="151">
        308 vlineto
        return
      </CharString>
      <CharString index="152">
        rmoveto
        4 callsubr
        return
      </CharString>
      <CharString index="153">
        -30 -24 19 36 35 24 21 30 return
      </CharString>
      <CharString index="154">
        16 -12 15 -18 hvcurveto
        return
      </CharString>
      <CharString index="155">
        18 12 15 17 return
      </CharString>
      <CharString index="156">
        16 16 -12 return
      </CharString>
</ttFont>
